# Alias Wavefront OBJ File Exported from SketchUp
# with OBJexporter (c) 2010-2011 TIG
# Units = meters

mtllib item_killer.mtl

g item_killer-SKP--clippy
usemtl clippy
v 64.842806 118.015000 0.000000
v -64.842806 -118.015000 0.000000
v 64.842806 -118.015000 0.000000
v -64.842806 118.015000 -0.000000
vn -0.000000 0.000000 1.000000
vn -0.000000 0.000000 1.000000
vn -0.000000 0.000000 1.000000
vn -0.000000 0.000000 1.000000
vt 0.755296 1.008835
vt 0.200996 0.000000
vt 0.755296 0.000000
vt 0.200997 1.008835
f 1/1/1 2/2/2 3/3/3
f 2/2/2 1/1/1 4/4/4

