# Alias Wavefront OBJ File Exported from SketchUp
# with OBJexporter (c) 2010-2011 TIG
# Units = meters

mtllib pile_coin.mtl

g Coin-SKP--Default_Material
usemtl Default_Material
v 71.589840 -0.000000 71.590820
v 71.589840 7.953125 71.591800
v 71.589840 -0.000000 71.591800
v 71.589840 -0.000000 71.591800
v 71.589840 -0.000000 -71.591810
v -71.591800 -0.000000 71.591800
v 71.589840 -0.000000 71.590820
v 71.589840 -7.953125 71.589840
v 71.589840 -0.000000 71.591800
v 71.589840 -7.953125 71.591800
v 71.589840 -0.000000 71.590820
vn 1.000000 0.000000 -0.000000
vn 1.000000 0.000000 -0.000000
vn 1.000000 0.000000 -0.000000
vn 0.000000 1.000000 0.000000
vn 0.000000 1.000000 0.000000
vn 0.000000 1.000000 0.000000
vn 0.000000 1.000000 0.000000
vn 1.000000 0.000000 -0.000000
vn 1.000000 0.000000 -0.000000
vn 1.000000 0.000000 -0.000000
vn 1.000000 0.000000 -0.000000
vt -2818.536220 -0.000000
vt -2818.574803 313.115157
vt -2818.574803 -0.000000
vt 2818.497638 -2818.574803
vt 2818.497638 2818.575197
vt -2818.574803 -2818.574803
vt 2818.497638 -2818.536220
vt -2818.497638 -313.115157
vt -2818.574803 -0.000000
vt -2818.574803 -313.115157
vt -2818.536220 -0.000000
f 1/1/1 2/2/2 3/3/3
f 4/4/4 5/5/5 6/6/6
f 5/5/5 4/4/4 7/7/7
f 8/8/8 9/9/9 10/10/10
f 9/9/9 8/8/8 11/11/11

g Coin-SKP--no_name1
usemtl no_name1
v 71.589840 7.953125 71.591800
v -71.591800 -0.000000 71.591800
v 71.589840 -0.000000 71.591800
v -71.591800 7.953125 71.591800
v 71.589840 7.953125 -71.591810
v -71.591800 7.953125 71.591800
v 71.589840 7.953125 71.591800
v 71.589840 -0.000000 71.590820
v 71.589840 7.953125 -71.591810
v 71.589840 7.953125 71.591800
v 71.589840 -0.000000 -71.591810
v 71.589840 7.953125 -71.591810
v -71.591800 -0.000000 71.591800
v -71.591800 7.953125 71.591800
v 71.589840 -0.000000 -71.591810
v 71.589840 -7.953125 -71.591810
v 71.589840 -7.953125 71.591800
v -71.591800 -7.953125 71.591800
v 71.589840 -7.953125 71.589840
vn 0.000000 0.000000 1.000000
vn 0.000000 0.000000 1.000000
vn 0.000000 0.000000 1.000000
vn 0.000000 0.000000 1.000000
vn 0.000000 1.000000 0.000000
vn 0.000000 1.000000 0.000000
vn 0.000000 1.000000 0.000000
vn 1.000000 0.000000 -0.000000
vn 1.000000 0.000000 -0.000000
vn 1.000000 0.000000 -0.000000
vn 1.000000 0.000000 -0.000000
vn -0.707112 0.000000 -0.707102
vn -0.707112 0.000000 -0.707102
vn -0.707112 0.000000 -0.707102
vn -0.707112 0.000000 -0.707102
vn 0.000000 -1.000000 0.000000
vn 0.000000 -1.000000 0.000000
vn 0.000000 -1.000000 0.000000
vn 0.000000 -1.000000 0.000000
vt 0.499999 0.055546
vt -0.500013 -0.000000
vt 0.499999 -0.000000
vt -0.500013 0.055546
vt 0.499999 0.500013
vt -0.500013 -0.500013
vt 0.499999 -0.500013
vt -0.500006 -0.000000
vt 0.500013 0.055546
vt -0.500013 0.055546
vt 0.500013 -0.000000
vt -0.707115 0.055546
vt 0.707125 -0.000000
vt 0.707125 0.055546
vt -0.707115 -0.000000
vt -0.499999 0.500013
vt -0.499999 -0.500013
vt 0.500013 -0.500013
vt -0.499999 -0.499999
f 12/12/12 13/13/13 14/14/14
f 13/13/13 12/12/12 15/15/15
f 16/16/16 17/17/17 18/18/18
f 19/19/19 20/20/20 21/21/21
f 20/20/20 19/19/19 22/22/22
f 23/23/23 24/24/24 25/25/25
f 24/24/24 23/23/23 26/26/26
f 27/27/27 28/28/28 29/29/29
f 28/28/28 27/27/27 30/30/30

g Coin-SKP--no_name2
usemtl no_name2
v 71.589840 -0.000000 -71.591810
v -71.591800 -7.953125 71.591800
v -71.591800 -0.000000 71.591800
v 71.589840 -7.953125 -71.591810
v 71.589840 -0.000000 71.591800
v -71.591800 -7.953125 71.591800
v 71.589840 -7.953125 71.591800
v -71.591800 -0.000000 71.591800
v 71.589840 -7.953125 71.589840
v 71.589840 -0.000000 -71.591810
v 71.589840 -0.000000 71.590820
v 71.589840 -7.953125 -71.591810
vn -0.707112 0.000000 -0.707102
vn -0.707112 0.000000 -0.707102
vn -0.707112 0.000000 -0.707102
vn -0.707112 0.000000 -0.707102
vn 0.000000 0.000000 1.000000
vn 0.000000 0.000000 1.000000
vn 0.000000 0.000000 1.000000
vn 0.000000 0.000000 1.000000
vn 1.000000 0.000000 -0.000000
vn 1.000000 0.000000 -0.000000
vn 1.000000 0.000000 -0.000000
vn 1.000000 0.000000 -0.000000
vt -0.707115 -0.000000
vt 0.707125 -0.055546
vt 0.707125 -0.000000
vt -0.707115 -0.055546
vt 0.499999 -0.000000
vt -0.500013 -0.055546
vt 0.499999 -0.055546
vt -0.500013 -0.000000
vt -0.499999 -0.055546
vt 0.500013 -0.000000
vt -0.500006 -0.000000
vt 0.500013 -0.055546
f 31/31/31 32/32/32 33/33/33
f 32/32/32 31/31/31 34/34/34
f 35/35/35 36/36/36 37/37/37
f 36/36/36 35/35/35 38/38/38
f 39/39/39 40/40/40 41/41/41
f 40/40/40 39/39/39 42/42/42

