# Alias Wavefront OBJ File Exported from SketchUp
# with OBJexporter (c) 2010-2011 TIG
# Units = meters

mtllib Rip_0003.mtl

g Mesh_0003-SKP--Default_Material
usemtl Default_Material
v 3456.000000 1152.000000 -10116.000000
v 2304.000000 1152.000000 -10044.000000
v 2304.000000 1152.000000 -10116.000000
v 3456.000000 1152.000000 -10044.000000
v 3456.000000 1152.000000 -10080.000000
v 3456.000000 2.250000 -10044.000000
v 2304.000000 2.250000 -10116.000000
v 2304.000000 2.250000 -10044.000000
v 3456.000000 2.250000 -10116.000000
v 3456.000000 2.250000 -10080.000000
v 7056.000000 1152.000000 -15102.000000
v 7056.000000 0.000000 -4608.000000
v 7056.000000 1152.000000 -4608.000000
v 7056.000000 0.000000 -15102.000000
v 7040.797516 1152.000000 -4543.601242
v 4736.797516 -0.000000 64.398758
v 4736.797516 1152.000000 64.398758
v 7040.797516 0.000000 -4543.601242
v 2304.000000 1152.000000 144.000000
v 4608.000000 -0.000000 144.000000
v 2304.000000 -0.000000 144.000000
v 4608.000000 1152.000000 144.000000
v 6912.000000 1152.000000 -15246.000000
v 0.000000 1152.000000 -15102.000000
v 0.000000 1152.000000 -15246.000000
v 6912.000000 1152.000000 -15102.000000
v 7056.000000 1152.000000 -15102.000000
v 6912.000000 1152.000000 -4608.000000
v 7040.797516 1152.000000 -4543.601242
v 7056.000000 1152.000000 -4608.000000
v -144.000000 1152.000000 -4608.000000
v -144.000000 1152.000000 -15102.000000
v -128.797516 1152.000000 -4543.601242
v 0.000000 1152.000000 -4608.000000
v 2175.202484 1152.000000 64.398758
v 2304.000000 1152.000000 -0.000000
v 2304.000000 1152.000000 144.000000
v 4608.000000 1152.000000 -0.000000
v 4608.000000 1152.000000 144.000000
v 4736.797516 1152.000000 64.398758
v -128.797516 0.000000 -4543.601242
v 2175.202484 1152.000000 64.398758
v 2175.202484 -0.000000 64.398758
v -128.797516 1152.000000 -4543.601242
v -144.000000 0.000000 -15102.000000
v -144.000000 1152.000000 -4608.000000
v -144.000000 0.000000 -4608.000000
v -144.000000 1152.000000 -15102.000000
v 2175.202484 -0.000000 64.398758
v 0.000000 0.000000 -4608.000000
v -128.797516 0.000000 -4543.601242
v 2304.000000 -0.000000 -0.000000
v 2304.000000 -0.000000 144.000000
v 4608.000000 -0.000000 144.000000
v 4608.000000 -0.000000 -0.000000
v 4736.797516 -0.000000 64.398758
v 6912.000000 0.000000 -4608.000000
v 7040.797516 0.000000 -4543.601242
v 6912.000000 0.000000 -15102.000000
v 6912.000000 0.000000 -15246.000000
v 7056.000000 0.000000 -15102.000000
v 7056.000000 0.000000 -4608.000000
v -144.000000 0.000000 -15102.000000
v -144.000000 0.000000 -4608.000000
v 0.000000 0.000000 -15246.000000
v 0.000000 0.000000 -15102.000000
v 6912.000000 1152.000000 -15246.000000
v 0.000000 0.000000 -15246.000000
v 6912.000000 0.000000 -15246.000000
v 0.000000 1152.000000 -15246.000000
v 7056.000000 1152.000000 -15102.000000
v 6912.000000 0.000000 -15246.000000
v 7056.000000 0.000000 -15102.000000
v 6912.000000 1152.000000 -15246.000000
v 0.000000 1152.000000 -15246.000000
v -144.000000 0.000000 -15102.000000
v 0.000000 0.000000 -15246.000000
v -144.000000 1152.000000 -15102.000000
v -144.000000 0.000000 -4608.000000
v -128.797516 1152.000000 -4543.601242
v -128.797516 0.000000 -4543.601242
v -144.000000 1152.000000 -4608.000000
v 2175.202484 -0.000000 64.398758
v 2304.000000 1152.000000 144.000000
v 2304.000000 -0.000000 144.000000
v 2175.202484 1152.000000 64.398758
v 4608.000000 1152.000000 144.000000
v 4736.797516 -0.000000 64.398758
v 4608.000000 -0.000000 144.000000
v 4736.797516 1152.000000 64.398758
v 7056.000000 1152.000000 -4608.000000
v 7040.797516 0.000000 -4543.601242
v 7040.797516 1152.000000 -4543.601242
v 7056.000000 0.000000 -4608.000000
v 3456.000000 2.250000 -10080.000000
v 3456.000000 577.125000 -10044.000000
v 3456.000000 2.250000 -10044.000000
v 3456.000000 577.125000 -10080.000000
v 3456.000000 577.125000 -10116.000000
v 3456.000000 1152.000000 -10080.000000
v 3456.000000 577.125000 -10080.000000
v 3456.000000 1152.000000 -10116.000000
v 3456.000000 577.125000 -10080.000000
v 3456.000000 1152.000000 -10044.000000
v 3456.000000 577.125000 -10044.000000
v 3456.000000 1152.000000 -10080.000000
v 3456.000000 2.250000 -10116.000000
v 3456.000000 577.125000 -10080.000000
v 3456.000000 2.250000 -10080.000000
v 3456.000000 577.125000 -10116.000000
v 4608.000000 1152.000000 -10116.000000
v 3456.000000 1152.000000 -10080.000000
v 3456.000000 1152.000000 -10116.000000
v 3456.000000 1152.000000 -10044.000000
v 4608.000000 1152.000000 -10044.000000
v 4608.000000 2.250000 -10044.000000
v 3456.000000 2.250000 -10080.000000
v 3456.000000 2.250000 -10044.000000
v 3456.000000 2.250000 -10116.000000
v 4608.000000 2.250000 -10116.000000
vn 0.000000 -1.000000 -0.000000
vn 0.000000 -1.000000 -0.000000
vn 0.000000 -1.000000 -0.000000
vn 0.000000 -1.000000 -0.000000
vn 0.000000 -1.000000 -0.000000
vn -0.000000 1.000000 0.000000
vn -0.000000 1.000000 0.000000
vn -0.000000 1.000000 0.000000
vn -0.000000 1.000000 0.000000
vn -0.000000 1.000000 0.000000
vn -1.000000 0.000000 -0.000000
vn -1.000000 0.000000 -0.000000
vn -1.000000 0.000000 -0.000000
vn -1.000000 0.000000 -0.000000
vn -0.894427 -0.000000 -0.447214
vn -0.894427 -0.000000 -0.447214
vn -0.894427 -0.000000 -0.447214
vn -0.894427 -0.000000 -0.447214
vn 0.000000 0.000000 -1.000000
vn 0.000000 0.000000 -1.000000
vn 0.000000 0.000000 -1.000000
vn 0.000000 0.000000 -1.000000
vn -0.000000 -1.000000 -0.000000
vn -0.000000 -1.000000 -0.000000
vn -0.000000 -1.000000 -0.000000
vn -0.000000 -1.000000 -0.000000
vn -0.000000 -1.000000 -0.000000
vn -0.000000 -1.000000 -0.000000
vn -0.000000 -1.000000 -0.000000
vn -0.000000 -1.000000 -0.000000
vn -0.000000 -1.000000 -0.000000
vn -0.000000 -1.000000 -0.000000
vn -0.000000 -1.000000 -0.000000
vn -0.000000 -1.000000 -0.000000
vn -0.000000 -1.000000 -0.000000
vn -0.000000 -1.000000 -0.000000
vn -0.000000 -1.000000 -0.000000
vn -0.000000 -1.000000 -0.000000
vn -0.000000 -1.000000 -0.000000
vn -0.000000 -1.000000 -0.000000
vn 0.894427 -0.000000 -0.447214
vn 0.894427 -0.000000 -0.447214
vn 0.894427 -0.000000 -0.447214
vn 0.894427 -0.000000 -0.447214
vn 1.000000 0.000000 -0.000000
vn 1.000000 0.000000 -0.000000
vn 1.000000 0.000000 -0.000000
vn 1.000000 0.000000 -0.000000
vn -0.000000 1.000000 0.000000
vn -0.000000 1.000000 0.000000
vn -0.000000 1.000000 0.000000
vn -0.000000 1.000000 0.000000
vn -0.000000 1.000000 0.000000
vn -0.000000 1.000000 0.000000
vn -0.000000 1.000000 0.000000
vn -0.000000 1.000000 0.000000
vn -0.000000 1.000000 0.000000
vn -0.000000 1.000000 0.000000
vn -0.000000 1.000000 0.000000
vn -0.000000 1.000000 0.000000
vn -0.000000 1.000000 0.000000
vn -0.000000 1.000000 0.000000
vn -0.000000 1.000000 0.000000
vn -0.000000 1.000000 0.000000
vn -0.000000 1.000000 0.000000
vn -0.000000 1.000000 0.000000
vn 0.000000 0.000000 1.000000
vn 0.000000 0.000000 1.000000
vn 0.000000 0.000000 1.000000
vn 0.000000 0.000000 1.000000
vn -0.707107 -0.000000 0.707107
vn -0.707107 -0.000000 0.707107
vn -0.707107 -0.000000 0.707107
vn -0.707107 -0.000000 0.707107
vn 0.707107 0.000000 0.707107
vn 0.707107 0.000000 0.707107
vn 0.707107 0.000000 0.707107
vn 0.707107 0.000000 0.707107
vn 0.973249 -0.000000 -0.229753
vn 0.973249 -0.000000 -0.229753
vn 0.973249 -0.000000 -0.229753
vn 0.973249 -0.000000 -0.229753
vn 0.525731 -0.000000 -0.850651
vn 0.525731 -0.000000 -0.850651
vn 0.525731 -0.000000 -0.850651
vn 0.525731 -0.000000 -0.850651
vn -0.525731 -0.000000 -0.850651
vn -0.525731 -0.000000 -0.850651
vn -0.525731 -0.000000 -0.850651
vn -0.525731 -0.000000 -0.850651
vn -0.973249 0.000000 -0.229753
vn -0.973249 0.000000 -0.229753
vn -0.973249 0.000000 -0.229753
vn -0.973249 0.000000 -0.229753
vn 1.000000 -0.000000 0.000000
vn 1.000000 -0.000000 0.000000
vn 1.000000 -0.000000 0.000000
vn 1.000000 -0.000000 0.000000
vn 1.000000 -0.000000 0.000000
vn 1.000000 -0.000000 0.000000
vn 1.000000 -0.000000 0.000000
vn 1.000000 -0.000000 0.000000
vn 1.000000 -0.000000 0.000000
vn 1.000000 -0.000000 0.000000
vn 1.000000 -0.000000 0.000000
vn 1.000000 -0.000000 0.000000
vn 1.000000 -0.000000 0.000000
vn 1.000000 -0.000000 0.000000
vn 1.000000 -0.000000 0.000000
vn 1.000000 -0.000000 0.000000
vn 0.000000 -1.000000 -0.000000
vn 0.000000 -1.000000 -0.000000
vn 0.000000 -1.000000 -0.000000
vn 0.000000 -1.000000 -0.000000
vn 0.000000 -1.000000 -0.000000
vn 0.000000 1.000000 0.000000
vn 0.000000 1.000000 0.000000
vn 0.000000 1.000000 0.000000
vn 0.000000 1.000000 0.000000
vn 0.000000 1.000000 0.000000
vt -136062.992126 398267.716535
vt -90708.661417 395433.070866
vt -90708.661417 398267.716535
vt -136062.992126 395433.070866
vt -136062.992126 396850.393701
vt 136062.992126 395433.070866
vt 90708.661417 398267.716535
vt 90708.661417 395433.070866
vt 136062.992126 398267.716535
vt 136062.992126 396850.393701
vt -594566.929134 45354.330709
vt -181417.322835 0.000000
vt -181417.322835 45354.330709
vt -594566.929134 0.000000
vt -283963.026308 45354.330709
vt -81132.293231 -0.000000
vt -81132.293231 45354.330709
vt -283963.026308 -0.000000
vt -90708.661417 45354.330709
vt -181417.322835 -0.000000
vt -90708.661417 -0.000000
vt -181417.322835 45354.330709
vt -272125.984252 600236.220472
vt 0.000000 594566.929134
vt 0.000000 600236.220472
vt -272125.984252 594566.929134
vt -277795.275591 594566.929134
vt -272125.984252 181417.322835
vt -277196.752579 178881.938671
vt -277795.275591 181417.322835
vt 5669.291339 181417.322835
vt 5669.291339 594566.929134
vt 5070.768327 178881.938671
vt 0.000000 181417.322835
vt -85637.893090 -2535.384163
vt -90708.661417 0.000000
vt -90708.661417 -5669.291339
vt -181417.322835 0.000000
vt -181417.322835 -5669.291339
vt -186488.091162 -2535.384163
vt 162264.586462 0.000000
vt -40566.146615 45354.330709
vt -40566.146615 -0.000000
vt 162264.586462 45354.330709
vt 594566.929134 0.000000
vt 181417.322835 45354.330709
vt 181417.322835 0.000000
vt 594566.929134 45354.330709
vt 85637.893090 -2535.384163
vt 0.000000 181417.322835
vt -5070.768327 178881.938671
vt 90708.661417 -0.000000
vt 90708.661417 -5669.291339
vt 181417.322835 -5669.291339
vt 181417.322835 -0.000000
vt 186488.091162 -2535.384163
vt 272125.984252 181417.322835
vt 277196.752579 178881.938671
vt 272125.984252 594566.929134
vt 272125.984252 600236.220472
vt 277795.275591 594566.929134
vt 277795.275591 181417.322835
vt -5669.291339 594566.929134
vt -5669.291339 181417.322835
vt 0.000000 600236.220472
vt 0.000000 594566.929134
vt 272125.984252 45354.330709
vt 0.000000 0.000000
vt 272125.984252 0.000000
vt 0.000000 45354.330709
vt -223991.384308 45354.330709
vt -232008.973008 0.000000
vt -223991.384308 0.000000
vt -232008.973008 45354.330709
vt 424431.101810 45354.330709
vt 416413.513110 0.000000
vt 424431.101810 0.000000
vt 416413.513110 45354.330709
vt 177866.762363 0.000000
vt 175261.689878 45354.330709
vt 175261.689878 0.000000
vt 177866.762363 45354.330709
vt -74180.873319 -0.000000
vt -80141.919000 45354.330709
vt -80141.919000 -0.000000
vt -74180.873319 45354.330709
vt -151342.269478 45354.330709
vt -157303.315159 -0.000000
vt -151342.269478 -0.000000
vt -157303.315159 45354.330709
vt -240388.502002 45354.330709
vt -237783.429517 0.000000
vt -237783.429517 45354.330709
vt -240388.502002 0.000000
vt 396850.393701 88.582677
vt 395433.070866 22721.456693
vt 395433.070866 88.582677
vt 396850.393701 22721.456693
vt 398267.716535 22721.456693
vt 396850.393701 45354.330709
vt 396850.393701 22721.456693
vt 398267.716535 45354.330709
vt 396850.393701 22721.456693
vt 395433.070866 45354.330709
vt 395433.070866 22721.456693
vt 396850.393701 45354.330709
vt 398267.716535 88.582677
vt 396850.393701 22721.456693
vt 396850.393701 88.582677
vt 398267.716535 22721.456693
vt -181417.322835 398267.716535
vt -136062.992126 396850.393701
vt -136062.992126 398267.716535
vt -136062.992126 395433.070866
vt -181417.322835 395433.070866
vt 181417.322835 395433.070866
vt 136062.992126 396850.393701
vt 136062.992126 395433.070866
vt 136062.992126 398267.716535
vt 181417.322835 398267.716535
f 1/1/1 2/2/2 3/3/3
f 2/2/2 1/1/1 4/4/4
f 4/4/4 1/1/1 5/5/5
f 6/6/6 7/7/7 8/8/8
f 7/7/7 6/6/6 9/9/9
f 9/9/9 6/6/6 10/10/10
f 11/11/11 12/12/12 13/13/13
f 12/12/12 11/11/11 14/14/14
f 15/15/15 16/16/16 17/17/17
f 16/16/16 15/15/15 18/18/18
f 19/19/19 20/20/20 21/21/21
f 20/20/20 19/19/19 22/22/22
f 23/23/23 24/24/24 25/25/25
f 24/24/24 23/23/23 26/26/26
f 26/26/26 23/23/23 27/27/27
f 26/26/26 27/27/27 28/28/28
f 28/28/28 27/27/27 29/29/29
f 29/29/29 27/27/27 30/30/30
f 25/25/25 31/31/31 32/32/32
f 31/31/31 25/25/25 33/33/33
f 33/33/33 25/25/25 34/34/34
f 33/33/33 34/34/34 35/35/35
f 34/34/34 25/25/25 24/24/24
f 35/35/35 34/34/34 36/36/36
f 35/35/35 36/36/36 37/37/37
f 37/37/37 36/36/36 38/38/38
f 37/37/37 38/38/38 39/39/39
f 39/39/39 38/38/38 28/28/28
f 39/39/39 28/28/28 40/40/40
f 40/40/40 28/28/28 29/29/29
f 41/41/41 42/42/42 43/43/43
f 42/42/42 41/41/41 44/44/44
f 45/45/45 46/46/46 47/47/47
f 46/46/46 45/45/45 48/48/48
f 49/49/49 50/50/50 51/51/51
f 50/50/50 49/49/49 52/52/52
f 52/52/52 49/49/49 53/53/53
f 52/52/52 53/53/53 54/54/54
f 52/52/52 54/54/54 55/55/55
f 55/55/55 54/54/54 56/56/56
f 55/55/55 56/56/56 57/57/57
f 57/57/57 56/56/56 58/58/58
f 57/57/57 58/58/58 59/59/59
f 59/59/59 58/58/58 60/60/60
f 60/60/60 58/58/58 61/61/61
f 61/61/61 58/58/58 62/62/62
f 51/51/51 63/63/63 64/64/64
f 63/63/63 51/51/51 65/65/65
f 65/65/65 51/51/51 50/50/50
f 65/65/65 50/50/50 66/66/66
f 65/65/65 66/66/66 59/59/59
f 65/65/65 59/59/59 60/60/60
f 67/67/67 68/68/68 69/69/69
f 68/68/68 67/67/67 70/70/70
f 71/71/71 72/72/72 73/73/73
f 72/72/72 71/71/71 74/74/74
f 75/75/75 76/76/76 77/77/77
f 76/76/76 75/75/75 78/78/78
f 79/79/79 80/80/80 81/81/81
f 80/80/80 79/79/79 82/82/82
f 83/83/83 84/84/84 85/85/85
f 84/84/84 83/83/83 86/86/86
f 87/87/87 88/88/88 89/89/89
f 88/88/88 87/87/87 90/90/90
f 91/91/91 92/92/92 93/93/93
f 92/92/92 91/91/91 94/94/94
f 95/95/95 96/96/96 97/97/97
f 96/96/96 95/95/95 98/98/98
f 99/99/99 100/100/100 101/101/101
f 100/100/100 99/99/99 102/102/102
f 103/103/103 104/104/104 105/105/105
f 104/104/104 103/103/103 106/106/106
f 107/107/107 108/108/108 109/109/109
f 108/108/108 107/107/107 110/110/110
f 111/111/111 112/112/112 113/113/113
f 112/112/112 111/111/111 114/114/114
f 114/114/114 111/111/111 115/115/115
f 116/116/116 117/117/117 118/118/118
f 117/117/117 116/116/116 119/119/119
f 119/119/119 116/116/116 120/120/120

g Mesh_0003-SKP--Metal_Aluminum_Anodized
usemtl Metal_Aluminum_Anodized
v 0.000000 0.000000 -15102.000000
v 0.000000 1152.000000 -4608.000000
v 0.000000 0.000000 -4608.000000
v 0.000000 1152.000000 -15102.000000
v 6912.000000 1152.000000 -15102.000000
v 0.000000 0.000000 -15102.000000
v 6912.000000 0.000000 -15102.000000
v 0.000000 1152.000000 -15102.000000
v 2304.000000 1152.000000 -10116.000000
v 2304.000000 2.250000 -10044.000000
v 2304.000000 1152.000000 -10044.000000
v 2304.000000 2.250000 -10116.000000
v 2304.000000 2.250000 -10116.000000
v 3456.000000 577.125000 -10116.000000
v 3456.000000 2.250000 -10116.000000
v 2304.000000 1152.000000 -10116.000000
v 3456.000000 1152.000000 -10116.000000
v 4608.000000 2.250000 -10116.000000
v 4608.000000 1152.000000 -10044.000000
v 4608.000000 2.250000 -10044.000000
v 4608.000000 1152.000000 -10116.000000
v 0.000000 1152.000000 -15102.000000
v 2304.000000 1152.000000 -10116.000000
v 0.000000 1152.000000 -4608.000000
v 6912.000000 1152.000000 -15102.000000
v 3456.000000 1152.000000 -10116.000000
v 4608.000000 1152.000000 -10116.000000
v 4608.000000 1152.000000 -10044.000000
v 4608.000000 1152.000000 -0.000000
v 6912.000000 1152.000000 -4608.000000
v 2304.000000 1152.000000 -0.000000
v 2304.000000 1152.000000 -10044.000000
v 3456.000000 1152.000000 -10044.000000
v 6912.000000 1152.000000 -15102.000000
v 6912.000000 0.000000 -4608.000000
v 6912.000000 1152.000000 -4608.000000
v 6912.000000 0.000000 -15102.000000
v 3456.000000 577.125000 -10116.000000
v 4608.000000 2.250000 -10116.000000
v 3456.000000 2.250000 -10116.000000
v 4608.000000 1152.000000 -10116.000000
v 3456.000000 1152.000000 -10116.000000
vn 1.000000 -0.000000 0.000000
vn 1.000000 -0.000000 0.000000
vn 1.000000 -0.000000 0.000000
vn 1.000000 -0.000000 0.000000
vn 0.000000 0.000000 1.000000
vn 0.000000 0.000000 1.000000
vn 0.000000 0.000000 1.000000
vn 0.000000 0.000000 1.000000
vn -1.000000 0.000000 -0.000000
vn -1.000000 0.000000 -0.000000
vn -1.000000 0.000000 -0.000000
vn -1.000000 0.000000 -0.000000
vn -0.000000 -0.000000 -1.000000
vn -0.000000 -0.000000 -1.000000
vn -0.000000 -0.000000 -1.000000
vn -0.000000 -0.000000 -1.000000
vn -0.000000 -0.000000 -1.000000
vn 1.000000 -0.000000 0.000000
vn 1.000000 -0.000000 0.000000
vn 1.000000 -0.000000 0.000000
vn 1.000000 -0.000000 0.000000
vn -0.000000 -1.000000 -0.000000
vn -0.000000 -1.000000 -0.000000
vn -0.000000 -1.000000 -0.000000
vn -0.000000 -1.000000 -0.000000
vn -0.000000 -1.000000 -0.000000
vn -0.000000 -1.000000 -0.000000
vn -0.000000 -1.000000 -0.000000
vn -0.000000 -1.000000 -0.000000
vn -0.000000 -1.000000 -0.000000
vn -0.000000 -1.000000 -0.000000
vn -0.000000 -1.000000 -0.000000
vn -0.000000 -1.000000 -0.000000
vn -1.000000 0.000000 -0.000000
vn -1.000000 0.000000 -0.000000
vn -1.000000 0.000000 -0.000000
vn -1.000000 0.000000 -0.000000
vn -0.000000 -0.000000 -1.000000
vn -0.000000 -0.000000 -1.000000
vn -0.000000 -0.000000 -1.000000
vn -0.000000 -0.000000 -1.000000
vn -0.000000 -0.000000 -1.000000
vt -12.000000 -0.000000
vt -21.109375 1.000000
vt -21.109375 -0.000000
vt -12.000000 1.000000
vt -6.000000 1.000000
vt -12.000000 -0.000000
vt -6.000000 -0.000000
vt -12.000000 1.000000
vt -3.000000 0.998047
vt -2.937500 -0.000000
vt -2.937500 0.998047
vt -3.000000 -0.000000
vt -3.000000 -0.000000
vt -4.000000 0.499023
vt -4.000000 -0.000000
vt -3.000000 0.998047
vt -4.000000 0.998047
vt -5.000000 -0.000000
vt -5.062500 0.998047
vt -5.062500 -0.000000
vt -5.000000 0.998047
vt -0.000000 1.000000
vt 2.000000 5.328125
vt -0.000000 10.109375
vt 6.000000 1.000000
vt 3.000000 5.328125
vt 4.000000 5.328125
vt 4.000000 5.390625
vt 4.000000 14.109375
vt 6.000000 10.109375
vt 2.000000 14.109375
vt 2.000000 5.390625
vt 3.000000 5.390625
vt -6.000000 1.000000
vt 3.109375 -0.000000
vt 3.109375 1.000000
vt -6.000000 -0.000000
vt -4.000000 0.499023
vt -5.000000 -0.000000
vt -4.000000 -0.000000
vt -5.000000 0.998047
vt -4.000000 0.998047
f 121/121/121 122/122/122 123/123/123
f 122/122/122 121/121/121 124/124/124
f 125/125/125 126/126/126 127/127/127
f 126/126/126 125/125/125 128/128/128
f 129/129/129 130/130/130 131/131/131
f 130/130/130 129/129/129 132/132/132
f 133/133/133 134/134/134 135/135/135
f 134/134/134 133/133/133 136/136/136
f 134/134/134 136/136/136 137/137/137
f 138/138/138 139/139/139 140/140/140
f 139/139/139 138/138/138 141/141/141
f 142/142/142 143/143/143 144/144/144
f 143/143/143 142/142/142 145/145/145
f 143/143/143 145/145/145 146/146/146
f 146/146/146 145/145/145 147/147/147
f 147/147/147 145/145/145 148/148/148
f 148/148/148 145/145/145 149/149/149
f 149/149/149 145/145/145 150/150/150
f 143/143/143 151/151/151 144/144/144
f 151/151/151 143/143/143 152/152/152
f 151/151/151 152/152/152 153/153/153
f 151/151/151 153/153/153 149/149/149
f 149/149/149 153/153/153 148/148/148
f 154/154/154 155/155/155 156/156/156
f 155/155/155 154/154/154 157/157/157
f 158/158/158 159/159/159 160/160/160
f 159/159/159 158/158/158 161/161/161
f 161/161/161 158/158/158 162/162/162

g Mesh_0003-SKP--Metal_Aluminum_Anodized1
usemtl Metal_Aluminum_Anodized1
v 0.000000 0.000000 -4608.000000
v 2304.000000 1152.000000 -0.000000
v 2304.000000 -0.000000 -0.000000
v 0.000000 1152.000000 -4608.000000
v 2304.000000 1152.000000 -0.000000
v 4608.000000 -0.000000 -0.000000
v 2304.000000 -0.000000 -0.000000
v 4608.000000 1152.000000 -0.000000
v 4608.000000 2.250000 -10044.000000
v 3456.000000 577.125000 -10044.000000
v 3456.000000 2.250000 -10044.000000
v 4608.000000 1152.000000 -10044.000000
v 3456.000000 1152.000000 -10044.000000
v 6912.000000 1152.000000 -4608.000000
v 4608.000000 -0.000000 -0.000000
v 4608.000000 1152.000000 -0.000000
v 6912.000000 0.000000 -4608.000000
v 3456.000000 577.125000 -10044.000000
v 2304.000000 2.250000 -10044.000000
v 3456.000000 2.250000 -10044.000000
v 2304.000000 1152.000000 -10044.000000
v 3456.000000 1152.000000 -10044.000000
vn 0.894427 -0.000000 -0.447214
vn 0.894427 -0.000000 -0.447214
vn 0.894427 -0.000000 -0.447214
vn 0.894427 -0.000000 -0.447214
vn -0.000000 -0.000000 -1.000000
vn -0.000000 -0.000000 -1.000000
vn -0.000000 -0.000000 -1.000000
vn -0.000000 -0.000000 -1.000000
vn 0.000000 0.000000 1.000000
vn 0.000000 0.000000 1.000000
vn 0.000000 0.000000 1.000000
vn 0.000000 0.000000 1.000000
vn 0.000000 0.000000 1.000000
vn -0.894427 -0.000000 -0.447214
vn -0.894427 -0.000000 -0.447214
vn -0.894427 -0.000000 -0.447214
vn -0.894427 -0.000000 -0.447214
vn 0.000000 0.000000 1.000000
vn 0.000000 0.000000 1.000000
vn 0.000000 0.000000 1.000000
vn 0.000000 0.000000 1.000000
vn 0.000000 0.000000 1.000000
vt 10.041505 -0.000000
vt 5.569369 1.000000
vt 5.569369 -0.000000
vt 10.041505 1.000000
vt 5.569369 1.000000
vt 3.569369 -0.000000
vt 5.569369 -0.000000
vt 3.569369 1.000000
vt 8.000003 -0.000000
vt 6.000001 0.998047
vt 6.000001 -0.000000
vt 8.000003 1.996094
vt 6.000002 1.996094
vt 0.202806 1.000000
vt 4.674942 -0.000000
vt 4.674942 1.000000
vt 0.202806 -0.000000
vt 6.000001 0.998047
vt 4.000000 -0.000000
vt 6.000001 -0.000000
vt 4.000000 1.996094
vt 6.000002 1.996094
f 163/163/163 164/164/164 165/165/165
f 164/164/164 163/163/163 166/166/166
f 167/167/167 168/168/168 169/169/169
f 168/168/168 167/167/167 170/170/170
f 171/171/171 172/172/172 173/173/173
f 172/172/172 171/171/171 174/174/174
f 172/172/172 174/174/174 175/175/175
f 176/176/176 177/177/177 178/178/178
f 177/177/177 176/176/176 179/179/179
f 180/180/180 181/181/181 182/182/182
f 181/181/181 180/180/180 183/183/183
f 183/183/183 180/180/180 184/184/184

g Mesh_0003-SKP--Color_F041
usemtl Color_F041
v 2304.000000 -0.000000 -0.000000
v 0.000000 0.000000 -15102.000000
v 0.000000 0.000000 -4608.000000
v 6912.000000 0.000000 -15102.000000
v 4608.000000 -0.000000 -0.000000
v 6912.000000 0.000000 -4608.000000
vn 0.000000 1.000000 0.000000
vn 0.000000 1.000000 0.000000
vn 0.000000 1.000000 0.000000
vn 0.000000 1.000000 0.000000
vn 0.000000 1.000000 0.000000
vn 0.000000 1.000000 0.000000
vt 6.333333 -1.958333
vt 1.000000 33.000000
vt 1.000000 8.708333
vt 17.000000 33.000000
vt 11.666667 -1.958333
vt 17.000000 8.708333
f 185/185/185 186/186/186 187/187/187
f 186/186/186 185/185/185 188/188/188
f 188/188/188 185/185/185 189/189/189
f 188/188/188 189/189/189 190/190/190

