# Alias Wavefront OBJ File Exported from SketchUp
# with OBJexporter (c) 2010-2011 TIG
# Units = meters

mtllib banana.mtl

g banana-SKP--i_banana
usemtl i_banana
v 43.748635 -36.321880 -36.636650
v 43.748635 36.321880 36.636650
v 43.748635 -36.321880 36.636650
v 43.748635 36.321880 -36.636650
v 43.748635 36.321880 36.636650
v -43.748635 -36.321880 36.636650
v 43.748635 -36.321880 36.636650
v -43.748635 36.321880 36.636650
v 43.748635 36.321880 36.636650
v -43.748635 36.321880 -36.636650
v -43.748635 36.321880 36.636650
v 43.748635 36.321880 -36.636650
v -43.748635 36.321880 -36.636650
v 43.748635 -36.321880 -36.636650
v -43.748635 -36.321880 -36.636650
v 43.748635 36.321880 -36.636650
v 43.748635 -36.321880 -36.636650
v -43.748635 -36.321880 36.636650
v -43.748635 -36.321880 -36.636650
v 43.748635 -36.321880 36.636650
v -43.748635 36.321880 -36.636650
v -43.748635 -36.321880 36.636650
v -43.748635 36.321880 36.636650
v -43.748635 -36.321880 -36.636650
vn 1.000000 -0.000000 0.000000
vn 1.000000 -0.000000 0.000000
vn 1.000000 -0.000000 0.000000
vn 1.000000 -0.000000 0.000000
vn 0.000000 0.000000 1.000000
vn 0.000000 0.000000 1.000000
vn 0.000000 0.000000 1.000000
vn 0.000000 0.000000 1.000000
vn -0.000000 1.000000 0.000000
vn -0.000000 1.000000 0.000000
vn -0.000000 1.000000 0.000000
vn -0.000000 1.000000 0.000000
vn -0.000000 -0.000000 -1.000000
vn -0.000000 -0.000000 -1.000000
vn -0.000000 -0.000000 -1.000000
vn -0.000000 -0.000000 -1.000000
vn 0.000000 -1.000000 0.000000
vn 0.000000 -1.000000 0.000000
vn 0.000000 -1.000000 0.000000
vn 0.000000 -1.000000 0.000000
vn -1.000000 0.000000 0.000000
vn -1.000000 0.000000 0.000000
vn -1.000000 0.000000 0.000000
vn -1.000000 0.000000 0.000000
vt 5.638840 0.000000
vt 4.630260 0.999914
vt 4.630260 0.000000
vt 5.638840 0.999914
vt 4.630260 0.999914
vt 3.425893 0.000000
vt 4.630260 0.000000
vt 3.425893 0.999914
vt 4.630260 0.999914
vt 3.425893 2.008494
vt 3.425893 0.999914
vt 4.630260 2.008494
vt 2.417314 0.999914
vt 1.212947 -0.000000
vt 2.417314 -0.000000
vt 1.212947 0.999914
vt -0.602184 0.504290
vt 0.602184 -0.504290
vt 0.602184 0.504290
vt -0.602184 -0.504290
vt 2.417314 0.999914
vt 3.425893 0.000000
vt 3.425893 0.999914
vt 2.417314 -0.000000
f 1/1/1 2/2/2 3/3/3
f 2/2/2 1/1/1 4/4/4
f 5/5/5 6/6/6 7/7/7
f 6/6/6 5/5/5 8/8/8
f 9/9/9 10/10/10 11/11/11
f 10/10/10 9/9/9 12/12/12
f 13/13/13 14/14/14 15/15/15
f 14/14/14 13/13/13 16/16/16
f 17/17/17 18/18/18 19/19/19
f 18/18/18 17/17/17 20/20/20
f 21/21/21 22/22/22 23/23/23
f 22/22/22 21/21/21 24/24/24

