# Alias Wavefront OBJ File Exported from SketchUp
# with OBJexporter (c) 2010-2011 TIG
# Units = meters

mtllib kumo_s.mtl

g kumo_s-GRP-1763-Default_Material
usemtl Default_Material
v 0.617954 3.000000 -0.463336
v 0.000000 -3.000000 -0.000000
v -0.617954 3.000000 -0.463336
v 0.617954 3.000000 0.463336
v -0.617954 3.000000 -0.463336
v -0.617954 3.000000 0.463336
v 0.617954 3.000000 -0.463336
v -0.617954 3.000000 -0.463336
v 0.000000 -3.000000 -0.000000
v -0.617954 3.000000 0.463336
v 0.617954 3.000000 -0.463336
v 0.617954 3.000000 0.463336
v 0.000000 -3.000000 -0.000000
v -0.617954 3.000000 0.463336
v 0.000000 -3.000000 -0.000000
v 0.617954 3.000000 0.463336
vn 0.000000 -0.076993 -0.997032
vn 0.000000 -0.076993 -0.997032
vn 0.000000 -0.076993 -0.997032
vn 0.000000 1.000000 -0.000000
vn 0.000000 1.000000 -0.000000
vn 0.000000 1.000000 -0.000000
vn 0.000000 1.000000 -0.000000
vn -0.994738 -0.102450 0.000000
vn -0.994738 -0.102450 0.000000
vn -0.994738 -0.102450 0.000000
vn 0.994738 -0.102450 0.000000
vn 0.994738 -0.102450 0.000000
vn 0.994738 -0.102450 0.000000
vn 0.000000 -0.076993 0.997032
vn 0.000000 -0.076993 0.997032
vn 0.000000 -0.076993 0.997032
vt -48.657798 238.328237
vt -24.328899 1.404481
vt 0.000000 238.328237
vt 48.657798 0.000000
vt 0.000000 36.483140
vt 0.000000 0.000000
vt 48.657798 36.483140
vt -36.483140 234.977507
vt -18.241570 -2.492506
vt 0.000000 234.977507
vt 36.483140 239.962518
vt 0.000000 239.962518
vt 18.241570 2.492506
vt 0.000000 235.519276
vt 24.328899 -1.404481
vt 48.657798 235.519276
f 1/1/1 2/2/2 3/3/3
f 4/4/4 5/5/5 6/6/6
f 5/5/5 4/4/4 7/7/7
f 8/8/8 9/9/9 10/10/10
f 11/11/11 12/12/12 13/13/13
f 14/14/14 15/15/15 16/16/16

