# Alias Wavefront OBJ File Exported from SketchUp
# with OBJexporter (c) 2010-2011 TIG
# Units = meters

mtllib foot_rb.mtl

g Bomb-SKP--Stone_Granite_BluePearl_c
usemtl Stone_Granite_BluePearl_c
v -0.062500 -0.100000 -0.012500
v -0.037500 -0.112500 -0.012500
v -0.062500 -0.112500 -0.012500
v -0.037500 -0.087500 -0.012500
v -0.062500 -0.087500 -0.012500
v -0.050000 -0.087500 -0.012500
v -0.062500 -0.087500 0.000000
v -0.050000 -0.100000 -0.000000
v -0.062500 -0.100000 0.000000
v -0.050000 -0.087500 0.000000
v -0.062500 -0.100000 0.012500
v -0.062500 -0.112500 0.000000
v -0.062500 -0.112500 0.012500
v -0.062500 -0.100000 0.000000
v -0.062500 -0.087500 0.000000
v -0.062500 -0.100000 0.012500
v -0.062500 -0.087500 0.012500
v -0.062500 -0.100000 0.000000
v -0.037500 -0.112500 -0.012500
v -0.062500 -0.112500 0.000000
v -0.062500 -0.112500 -0.012500
v -0.062500 -0.112500 0.012500
v -0.037500 -0.112500 0.012500
v -0.037500 -0.087500 0.012500
v -0.062500 -0.112500 0.012500
v -0.037500 -0.112500 0.012500
v -0.062500 -0.100000 0.012500
v -0.062500 -0.087500 0.012500
v -0.050000 -0.087500 0.012500
v -0.037500 -0.087500 0.012500
v -0.050000 -0.087500 0.000000
v -0.050000 -0.087500 0.012500
v -0.037500 -0.087500 0.000000
v -0.062500 -0.087500 -0.012500
v -0.062500 -0.100000 0.000000
v -0.062500 -0.087500 0.000000
v -0.062500 -0.100000 -0.012500
v -0.050000 -0.087500 0.000000
v -0.062500 -0.087500 -0.012500
v -0.062500 -0.087500 0.000000
v -0.050000 -0.087500 -0.012500
v -0.062500 -0.100000 -0.012500
v -0.062500 -0.112500 0.000000
v -0.062500 -0.100000 0.000000
v -0.062500 -0.112500 -0.012500
v -0.037500 -0.087500 0.000000
v -0.050000 -0.087500 -0.012500
v -0.050000 -0.087500 0.000000
v -0.037500 -0.087500 -0.012500
v -0.050000 -0.087500 0.012500
v -0.062500 -0.087500 0.000000
v -0.062500 -0.087500 0.012500
v -0.050000 -0.087500 0.000000
v -0.037500 -0.112500 -0.012500
v -0.037500 -0.087500 0.012500
v -0.037500 -0.112500 0.012500
v -0.037500 -0.087500 0.000000
v -0.037500 -0.087500 -0.012500
vn 0.000000 0.000000 -1.000000
vn 0.000000 0.000000 -1.000000
vn 0.000000 0.000000 -1.000000
vn 0.000000 0.000000 -1.000000
vn 0.000000 0.000000 -1.000000
vn 0.000000 0.000000 -1.000000
vn -0.000000 0.000000 -1.000000
vn -0.000000 0.000000 -1.000000
vn -0.000000 0.000000 -1.000000
vn -0.000000 0.000000 -1.000000
vn -1.000000 0.000000 -0.000000
vn -1.000000 0.000000 -0.000000
vn -1.000000 0.000000 -0.000000
vn -1.000000 0.000000 -0.000000
vn -1.000000 0.000000 -0.000000
vn -1.000000 0.000000 -0.000000
vn -1.000000 0.000000 -0.000000
vn -1.000000 0.000000 -0.000000
vn 0.000000 -1.000000 -0.000000
vn 0.000000 -1.000000 -0.000000
vn 0.000000 -1.000000 -0.000000
vn 0.000000 -1.000000 -0.000000
vn 0.000000 -1.000000 -0.000000
vn -0.000000 0.000000 1.000000
vn -0.000000 0.000000 1.000000
vn -0.000000 0.000000 1.000000
vn -0.000000 0.000000 1.000000
vn -0.000000 0.000000 1.000000
vn -0.000000 0.000000 1.000000
vn 0.000000 1.000000 -0.000000
vn 0.000000 1.000000 -0.000000
vn 0.000000 1.000000 -0.000000
vn 0.000000 1.000000 -0.000000
vn -1.000000 0.000000 -0.000000
vn -1.000000 0.000000 -0.000000
vn -1.000000 0.000000 -0.000000
vn -1.000000 0.000000 -0.000000
vn 0.000000 1.000000 -0.000000
vn 0.000000 1.000000 -0.000000
vn 0.000000 1.000000 -0.000000
vn 0.000000 1.000000 -0.000000
vn -1.000000 0.000000 -0.000000
vn -1.000000 0.000000 -0.000000
vn -1.000000 0.000000 -0.000000
vn -1.000000 0.000000 -0.000000
vn 0.000000 1.000000 -0.000000
vn 0.000000 1.000000 -0.000000
vn 0.000000 1.000000 -0.000000
vn 0.000000 1.000000 -0.000000
vn 0.000000 1.000000 -0.000000
vn 0.000000 1.000000 -0.000000
vn 0.000000 1.000000 -0.000000
vn 0.000000 1.000000 -0.000000
vn 1.000000 0.000000 -0.000000
vn 1.000000 0.000000 -0.000000
vn 1.000000 0.000000 -0.000000
vn 1.000000 0.000000 -0.000000
vn 1.000000 0.000000 -0.000000
vt 0.250000 -0.400000
vt 0.150000 -0.450000
vt 0.250000 -0.450000
vt 0.150000 -0.350000
vt 0.250000 -0.350000
vt 0.200000 -0.350000
vt 0.250000 -0.350000
vt 0.200000 -0.400000
vt 0.250000 -0.400000
vt 0.200000 -0.350000
vt 0.050000 -0.400000
vt 0.000000 -0.450000
vt 0.050000 -0.450000
vt 0.000000 -0.400000
vt 0.000000 -0.350000
vt 0.050000 -0.400000
vt 0.050000 -0.350000
vt 0.000000 -0.400000
vt 0.150000 0.050000
vt 0.250000 -0.000000
vt 0.250000 0.050000
vt 0.250000 -0.050000
vt 0.150000 -0.050000
vt -0.150000 -0.350000
vt -0.250000 -0.450000
vt -0.150000 -0.450000
vt -0.250000 -0.400000
vt -0.250000 -0.350000
vt -0.200000 -0.350000
vt -0.150000 -0.050000
vt -0.200000 -0.000000
vt -0.200000 -0.050000
vt -0.150000 -0.000000
vt -0.050000 -0.350000
vt 0.000000 -0.400000
vt 0.000000 -0.350000
vt -0.050000 -0.400000
vt -0.200000 -0.000000
vt -0.250000 0.050000
vt -0.250000 -0.000000
vt -0.200000 0.050000
vt -0.050000 -0.400000
vt 0.000000 -0.450000
vt 0.000000 -0.400000
vt -0.050000 -0.450000
vt -0.150000 -0.000000
vt -0.200000 0.050000
vt -0.200000 -0.000000
vt -0.150000 0.050000
vt -0.200000 -0.050000
vt -0.250000 -0.000000
vt -0.250000 -0.050000
vt -0.200000 -0.000000
vt 0.050000 -0.450000
vt -0.050000 -0.350000
vt -0.050000 -0.450000
vt -0.000000 -0.350000
vt 0.050000 -0.350000
f 1/1/1 2/2/2 3/3/3
f 2/2/2 1/1/1 4/4/4
f 4/4/4 1/1/1 5/5/5
f 4/4/4 5/5/5 6/6/6
f 7/7/7 8/8/8 9/9/9
f 8/8/8 7/7/7 10/10/10
f 11/11/11 12/12/12 13/13/13
f 12/12/12 11/11/11 14/14/14
f 15/15/15 16/16/16 17/17/17
f 16/16/16 15/15/15 18/18/18
f 19/19/19 20/20/20 21/21/21
f 20/20/20 19/19/19 22/22/22
f 22/22/22 19/19/19 23/23/23
f 24/24/24 25/25/25 26/26/26
f 25/25/25 24/24/24 27/27/27
f 27/27/27 24/24/24 28/28/28
f 28/28/28 24/24/24 29/29/29
f 30/30/30 31/31/31 32/32/32
f 31/31/31 30/30/30 33/33/33
f 34/34/34 35/35/35 36/36/36
f 35/35/35 34/34/34 37/37/37
f 38/38/38 39/39/39 40/40/40
f 39/39/39 38/38/38 41/41/41
f 42/42/42 43/43/43 44/44/44
f 43/43/43 42/42/42 45/45/45
f 46/46/46 47/47/47 48/48/48
f 47/47/47 46/46/46 49/49/49
f 50/50/50 51/51/51 52/52/52
f 51/51/51 50/50/50 53/53/53
f 54/54/54 55/55/55 56/56/56
f 55/55/55 54/54/54 57/57/57
f 57/57/57 54/54/54 58/58/58

