# Alias Wavefront OBJ File Exported from SketchUp
# with OBJexporter (c) 2010-2011 TIG
# Units = meters

mtllib foot_lb.mtl

g Bomb-SKP--Stone_Granite_BluePearl_e
usemtl Stone_Granite_BluePearl_e
v 0.037500 -0.087500 -0.012500
v 0.062500 -0.112500 -0.012500
v 0.037500 -0.112500 -0.012500
v 0.062500 -0.100000 -0.012500
v 0.062500 -0.087500 -0.012500
v 0.050000 -0.087500 -0.012500
v 0.062500 -0.100000 -0.012500
v 0.062500 -0.087500 0.000000
v 0.062500 -0.100000 0.000000
v 0.062500 -0.087500 -0.012500
v 0.062500 -0.087500 0.012500
v 0.050000 -0.087500 0.000000
v 0.050000 -0.087500 0.012500
v 0.062500 -0.087500 0.000000
v 0.037500 -0.087500 0.000000
v 0.037500 -0.112500 0.012500
v 0.037500 -0.087500 0.012500
v 0.037500 -0.112500 -0.012500
v 0.037500 -0.087500 -0.012500
v 0.050000 -0.087500 0.000000
v 0.062500 -0.100000 0.000000
v 0.050000 -0.100000 0.000000
v 0.062500 -0.087500 0.000000
v 0.062500 -0.112500 -0.012500
v 0.062500 -0.100000 0.000000
v 0.062500 -0.112500 0.000000
v 0.062500 -0.100000 -0.012500
v 0.062500 -0.112500 0.000000
v 0.062500 -0.100000 0.012500
v 0.062500 -0.112500 0.012500
v 0.062500 -0.100000 0.000000
v 0.062500 -0.112500 -0.012500
v 0.037500 -0.112500 0.012500
v 0.037500 -0.112500 -0.012500
v 0.062500 -0.112500 0.012500
v 0.062500 -0.112500 0.000000
v 0.062500 -0.100000 0.012500
v 0.037500 -0.112500 0.012500
v 0.062500 -0.112500 0.012500
v 0.037500 -0.087500 0.012500
v 0.062500 -0.087500 0.012500
v 0.050000 -0.087500 0.012500
v 0.062500 -0.100000 0.012500
v 0.062500 -0.087500 0.000000
v 0.062500 -0.087500 0.012500
v 0.062500 -0.100000 0.000000
v 0.050000 -0.087500 0.012500
v 0.037500 -0.087500 0.000000
v 0.037500 -0.087500 0.012500
v 0.050000 -0.087500 0.000000
v 0.050000 -0.087500 0.000000
v 0.037500 -0.087500 -0.012500
v 0.037500 -0.087500 0.000000
v 0.050000 -0.087500 -0.012500
v 0.062500 -0.087500 0.000000
v 0.050000 -0.087500 -0.012500
v 0.050000 -0.087500 0.000000
v 0.062500 -0.087500 -0.012500
vn 0.000000 -0.000000 -1.000000
vn 0.000000 -0.000000 -1.000000
vn 0.000000 -0.000000 -1.000000
vn 0.000000 -0.000000 -1.000000
vn 0.000000 -0.000000 -1.000000
vn 0.000000 -0.000000 -1.000000
vn 1.000000 0.000000 -0.000000
vn 1.000000 0.000000 -0.000000
vn 1.000000 0.000000 -0.000000
vn 1.000000 0.000000 -0.000000
vn 0.000000 1.000000 -0.000000
vn 0.000000 1.000000 -0.000000
vn 0.000000 1.000000 -0.000000
vn 0.000000 1.000000 -0.000000
vn -1.000000 0.000000 -0.000000
vn -1.000000 0.000000 -0.000000
vn -1.000000 0.000000 -0.000000
vn -1.000000 0.000000 -0.000000
vn -1.000000 0.000000 -0.000000
vn 0.000000 0.000000 -1.000000
vn 0.000000 0.000000 -1.000000
vn 0.000000 0.000000 -1.000000
vn 0.000000 0.000000 -1.000000
vn 1.000000 0.000000 -0.000000
vn 1.000000 0.000000 -0.000000
vn 1.000000 0.000000 -0.000000
vn 1.000000 0.000000 -0.000000
vn 1.000000 0.000000 -0.000000
vn 1.000000 0.000000 -0.000000
vn 1.000000 0.000000 -0.000000
vn 1.000000 0.000000 -0.000000
vn 0.000000 -1.000000 0.000000
vn 0.000000 -1.000000 0.000000
vn 0.000000 -1.000000 0.000000
vn 0.000000 -1.000000 0.000000
vn 0.000000 -1.000000 0.000000
vn 0.000000 0.000000 1.000000
vn 0.000000 0.000000 1.000000
vn 0.000000 0.000000 1.000000
vn 0.000000 0.000000 1.000000
vn 0.000000 0.000000 1.000000
vn 0.000000 0.000000 1.000000
vn 1.000000 0.000000 -0.000000
vn 1.000000 0.000000 -0.000000
vn 1.000000 0.000000 -0.000000
vn 1.000000 0.000000 -0.000000
vn 0.000000 1.000000 -0.000000
vn 0.000000 1.000000 -0.000000
vn 0.000000 1.000000 -0.000000
vn 0.000000 1.000000 -0.000000
vn 0.000000 1.000000 -0.000000
vn 0.000000 1.000000 -0.000000
vn 0.000000 1.000000 -0.000000
vn 0.000000 1.000000 -0.000000
vn 0.000000 1.000000 -0.000000
vn 0.000000 1.000000 -0.000000
vn 0.000000 1.000000 -0.000000
vn 0.000000 1.000000 -0.000000
vt -0.150000 -0.350000
vt -0.250000 -0.450000
vt -0.150000 -0.450000
vt -0.250000 -0.400000
vt -0.250000 -0.350000
vt -0.200000 -0.350000
vt 0.050000 -0.400000
vt -0.000000 -0.350000
vt -0.000000 -0.400000
vt 0.050000 -0.350000
vt 0.250000 -0.050000
vt 0.200000 0.000000
vt 0.200000 -0.050000
vt 0.250000 0.000000
vt 0.000000 -0.350000
vt 0.050000 -0.450000
vt 0.050000 -0.350000
vt -0.050000 -0.450000
vt -0.050000 -0.350000
vt -0.200000 -0.350000
vt -0.250000 -0.400000
vt -0.200000 -0.400000
vt -0.250000 -0.350000
vt 0.050000 -0.450000
vt -0.000000 -0.400000
vt -0.000000 -0.450000
vt 0.050000 -0.400000
vt -0.000000 -0.450000
vt -0.050000 -0.400000
vt -0.050000 -0.450000
vt -0.000000 -0.400000
vt -0.250000 0.050000
vt -0.150000 -0.050000
vt -0.150000 0.050000
vt -0.250000 -0.050000
vt -0.250000 0.000000
vt 0.250000 -0.400000
vt 0.150000 -0.450000
vt 0.250000 -0.450000
vt 0.150000 -0.350000
vt 0.250000 -0.350000
vt 0.200000 -0.350000
vt -0.050000 -0.400000
vt -0.000000 -0.350000
vt -0.050000 -0.350000
vt -0.000000 -0.400000
vt 0.200000 -0.050000
vt 0.150000 0.000000
vt 0.150000 -0.050000
vt 0.200000 0.000000
vt 0.200000 0.000000
vt 0.150000 0.050000
vt 0.150000 0.000000
vt 0.200000 0.050000
vt 0.250000 0.000000
vt 0.200000 0.050000
vt 0.200000 0.000000
vt 0.250000 0.050000
f 1/1/1 2/2/2 3/3/3
f 2/2/2 1/1/1 4/4/4
f 4/4/4 1/1/1 5/5/5
f 5/5/5 1/1/1 6/6/6
f 7/7/7 8/8/8 9/9/9
f 8/8/8 7/7/7 10/10/10
f 11/11/11 12/12/12 13/13/13
f 12/12/12 11/11/11 14/14/14
f 15/15/15 16/16/16 17/17/17
f 16/16/16 15/15/15 18/18/18
f 18/18/18 15/15/15 19/19/19
f 20/20/20 21/21/21 22/22/22
f 21/21/21 20/20/20 23/23/23
f 24/24/24 25/25/25 26/26/26
f 25/25/25 24/24/24 27/27/27
f 28/28/28 29/29/29 30/30/30
f 29/29/29 28/28/28 31/31/31
f 32/32/32 33/33/33 34/34/34
f 33/33/33 32/32/32 35/35/35
f 35/35/35 32/32/32 36/36/36
f 37/37/37 38/38/38 39/39/39
f 38/38/38 37/37/37 40/40/40
f 40/40/40 37/37/37 41/41/41
f 40/40/40 41/41/41 42/42/42
f 43/43/43 44/44/44 45/45/45
f 44/44/44 43/43/43 46/46/46
f 47/47/47 48/48/48 49/49/49
f 48/48/48 47/47/47 50/50/50
f 51/51/51 52/52/52 53/53/53
f 52/52/52 51/51/51 54/54/54
f 55/55/55 56/56/56 57/57/57
f 56/56/56 55/55/55 58/58/58

