# Alias Wavefront OBJ File Exported from SketchUp
# with OBJexporter (c) 2010-2011 TIG
# Units = meters

mtllib neji_j1.mtl

g Bomb-SKP--Stone_Granite_BluePearl_f
usemtl Stone_Granite_BluePearl_f
v 0.000000 0.012500 0.000000
v -0.012500 0.012500 -0.012500
v -0.012500 0.012500 0.000000
v 0.000000 0.012500 -0.012500
v -0.012500 0.012500 0.000000
v 0.000000 0.000000 -0.000000
v -0.012500 0.000000 0.000000
v 0.000000 0.012500 0.000000
v -0.012500 0.000000 -0.012500
v 0.012500 -0.012500 -0.012500
v -0.012500 -0.012500 -0.012500
v 0.012500 0.012500 -0.012500
v -0.012500 0.012500 -0.012500
v 0.000000 0.012500 -0.012500
v 0.012500 0.012500 0.000000
v 0.000000 0.012500 -0.012500
v 0.000000 0.012500 0.000000
v 0.012500 0.012500 -0.012500
v 0.000000 0.012500 0.012500
v -0.012500 0.012500 0.000000
v -0.012500 0.012500 0.012500
v 0.000000 0.012500 0.000000
v 0.012500 -0.012500 -0.012500
v -0.012500 -0.012500 0.000000
v -0.012500 -0.012500 -0.012500
v -0.012500 -0.012500 0.012500
v 0.012500 -0.012500 0.012500
v 0.012500 0.012500 0.012500
v -0.012500 -0.012500 0.012500
v 0.012500 -0.012500 0.012500
v -0.012500 0.000000 0.012500
v -0.012500 0.012500 0.012500
v 0.000000 0.012500 0.012500
v 0.012500 0.012500 0.012500
v 0.000000 0.012500 0.000000
v 0.000000 0.012500 0.012500
v 0.012500 0.012500 0.000000
v 0.012500 -0.012500 -0.012500
v 0.012500 0.012500 0.012500
v 0.012500 -0.012500 0.012500
v 0.012500 0.012500 0.000000
v 0.012500 0.012500 -0.012500
v -0.012500 0.000000 0.012500
v -0.012500 -0.012500 0.000000
v -0.012500 -0.012500 0.012500
v -0.012500 0.000000 0.000000
v -0.012500 0.012500 -0.012500
v -0.012500 0.000000 0.000000
v -0.012500 0.012500 0.000000
v -0.012500 0.000000 -0.012500
v -0.012500 0.012500 0.000000
v -0.012500 0.000000 0.012500
v -0.012500 0.012500 0.012500
v -0.012500 0.000000 0.000000
v -0.012500 0.000000 -0.012500
v -0.012500 -0.012500 0.000000
v -0.012500 0.000000 0.000000
v -0.012500 -0.012500 -0.012500
vn 0.000000 1.000000 -0.000000
vn 0.000000 1.000000 -0.000000
vn 0.000000 1.000000 -0.000000
vn 0.000000 1.000000 -0.000000
vn -0.000000 0.000000 -1.000000
vn -0.000000 0.000000 -1.000000
vn -0.000000 0.000000 -1.000000
vn -0.000000 0.000000 -1.000000
vn 0.000000 -0.000000 -1.000000
vn 0.000000 -0.000000 -1.000000
vn 0.000000 -0.000000 -1.000000
vn 0.000000 -0.000000 -1.000000
vn 0.000000 -0.000000 -1.000000
vn 0.000000 -0.000000 -1.000000
vn 0.000000 1.000000 -0.000000
vn 0.000000 1.000000 -0.000000
vn 0.000000 1.000000 -0.000000
vn 0.000000 1.000000 -0.000000
vn 0.000000 1.000000 -0.000000
vn 0.000000 1.000000 -0.000000
vn 0.000000 1.000000 -0.000000
vn 0.000000 1.000000 -0.000000
vn 0.000000 -1.000000 -0.000000
vn 0.000000 -1.000000 -0.000000
vn 0.000000 -1.000000 -0.000000
vn 0.000000 -1.000000 -0.000000
vn 0.000000 -1.000000 -0.000000
vn -0.000000 0.000000 1.000000
vn -0.000000 0.000000 1.000000
vn -0.000000 0.000000 1.000000
vn -0.000000 0.000000 1.000000
vn -0.000000 0.000000 1.000000
vn -0.000000 0.000000 1.000000
vn 0.000000 1.000000 -0.000000
vn 0.000000 1.000000 -0.000000
vn 0.000000 1.000000 -0.000000
vn 0.000000 1.000000 -0.000000
vn 1.000000 0.000000 -0.000000
vn 1.000000 0.000000 -0.000000
vn 1.000000 0.000000 -0.000000
vn 1.000000 0.000000 -0.000000
vn 1.000000 0.000000 -0.000000
vn -1.000000 0.000000 -0.000000
vn -1.000000 0.000000 -0.000000
vn -1.000000 0.000000 -0.000000
vn -1.000000 0.000000 -0.000000
vn -1.000000 0.000000 -0.000000
vn -1.000000 0.000000 -0.000000
vn -1.000000 0.000000 -0.000000
vn -1.000000 0.000000 -0.000000
vn -1.000000 0.000000 -0.000000
vn -1.000000 0.000000 -0.000000
vn -1.000000 0.000000 -0.000000
vn -1.000000 0.000000 -0.000000
vn -1.000000 0.000000 -0.000000
vn -1.000000 0.000000 -0.000000
vn -1.000000 0.000000 -0.000000
vn -1.000000 0.000000 -0.000000
vt -0.200000 -0.000000
vt -0.250000 0.050000
vt -0.250000 -0.000000
vt -0.200000 0.050000
vt 0.250000 -0.050000
vt 0.200000 -0.100000
vt 0.250000 -0.100000
vt 0.200000 -0.050000
vt 0.250000 -0.100000
vt 0.150000 -0.150000
vt 0.250000 -0.150000
vt 0.150000 -0.050000
vt 0.250000 -0.050000
vt 0.200000 -0.050000
vt -0.150000 -0.000000
vt -0.200000 0.050000
vt -0.200000 -0.000000
vt -0.150000 0.050000
vt -0.200000 -0.050000
vt -0.250000 -0.000000
vt -0.250000 -0.050000
vt -0.200000 -0.000000
vt 0.150000 0.050000
vt 0.250000 -0.000000
vt 0.250000 0.050000
vt 0.250000 -0.050000
vt 0.150000 -0.050000
vt -0.150000 -0.050000
vt -0.250000 -0.150000
vt -0.150000 -0.150000
vt -0.250000 -0.100000
vt -0.250000 -0.050000
vt -0.200000 -0.050000
vt -0.150000 -0.050000
vt -0.200000 -0.000000
vt -0.200000 -0.050000
vt -0.150000 -0.000000
vt 0.050000 -0.150000
vt -0.050000 -0.050000
vt -0.050000 -0.150000
vt -0.000000 -0.050000
vt 0.050000 -0.050000
vt 0.050000 -0.100000
vt 0.000000 -0.150000
vt 0.050000 -0.150000
vt 0.000000 -0.100000
vt -0.050000 -0.050000
vt 0.000000 -0.100000
vt 0.000000 -0.050000
vt -0.050000 -0.100000
vt 0.000000 -0.050000
vt 0.050000 -0.100000
vt 0.050000 -0.050000
vt 0.000000 -0.100000
vt -0.050000 -0.100000
vt 0.000000 -0.150000
vt 0.000000 -0.100000
vt -0.050000 -0.150000
f 1/1/1 2/2/2 3/3/3
f 2/2/2 1/1/1 4/4/4
f 5/5/5 6/6/6 7/7/7
f 6/6/6 5/5/5 8/8/8
f 9/9/9 10/10/10 11/11/11
f 10/10/10 9/9/9 12/12/12
f 12/12/12 9/9/9 13/13/13
f 12/12/12 13/13/13 14/14/14
f 15/15/15 16/16/16 17/17/17
f 16/16/16 15/15/15 18/18/18
f 19/19/19 20/20/20 21/21/21
f 20/20/20 19/19/19 22/22/22
f 23/23/23 24/24/24 25/25/25
f 24/24/24 23/23/23 26/26/26
f 26/26/26 23/23/23 27/27/27
f 28/28/28 29/29/29 30/30/30
f 29/29/29 28/28/28 31/31/31
f 31/31/31 28/28/28 32/32/32
f 32/32/32 28/28/28 33/33/33
f 34/34/34 35/35/35 36/36/36
f 35/35/35 34/34/34 37/37/37
f 38/38/38 39/39/39 40/40/40
f 39/39/39 38/38/38 41/41/41
f 41/41/41 38/38/38 42/42/42
f 43/43/43 44/44/44 45/45/45
f 44/44/44 43/43/43 46/46/46
f 47/47/47 48/48/48 49/49/49
f 48/48/48 47/47/47 50/50/50
f 51/51/51 52/52/52 53/53/53
f 52/52/52 51/51/51 54/54/54
f 55/55/55 56/56/56 57/57/57
f 56/56/56 55/55/55 58/58/58

