# Alias Wavefront OBJ File Exported from SketchUp
# with OBJexporter (c) 2010-2011 TIG
# Units = meters

mtllib Rip_0000.mtl

g Big-SKP--osf_kumo3
usemtl osf_kumo3
v -28077.654197 27763.060000 -28212.376209
v -16487.664197 27763.060000 16388.443791
v -28258.034197 27763.060000 -4359.206209
v -15994.844197 27763.060000 -48779.636209
v 4079.605803 27763.060000 28471.233791
v 4752.805803 27763.060000 -60550.016209
v 27932.775803 27763.060000 28651.633791
v 28605.975803 27763.060000 -60369.626209
v 48680.425803 27763.060000 16881.253791
v 49173.235803 27763.060000 -48286.836209
v 60763.225803 27763.060000 -3686.006209
v 60943.605803 27763.060000 -27539.186209
vn 0.000000 -1.000000 -0.000000
vn 0.000000 -1.000000 -0.000000
vn 0.000000 -1.000000 -0.000000
vn 0.000000 -1.000000 -0.000000
vn 0.000000 -1.000000 -0.000000
vn 0.000000 -1.000000 -0.000000
vn 0.000000 -1.000000 -0.000000
vn 0.000000 -1.000000 -0.000000
vn 0.000000 -1.000000 -0.000000
vn 0.000000 -1.000000 -0.000000
vn 0.000000 -1.000000 -0.000000
vn 0.000000 -1.000000 -0.000000
vt 23014.470654 11562.449266
vt 13514.478850 -6716.575324
vt 23162.323113 1786.559922
vt 13110.528031 19991.654184
vt -3343.939182 -11668.538439
vt -3895.742461 24815.580414
vt -22895.717871 -11742.472865
vt -23447.521150 24741.650086
vt -39901.988363 -6918.546635
vt -40305.930986 19789.686971
vt -49805.922789 1510.658283
vt -49953.775248 11286.551725
f 1/1/1 2/2/2 3/3/3
f 2/2/2 1/1/1 4/4/4
f 2/2/2 4/4/4 5/5/5
f 5/5/5 4/4/4 6/6/6
f 5/5/5 6/6/6 7/7/7
f 7/7/7 6/6/6 8/8/8
f 7/7/7 8/8/8 9/9/9
f 9/9/9 8/8/8 10/10/10
f 9/9/9 10/10/10 11/11/11
f 11/11/11 10/10/10 12/12/12

g Big-SKP--BG_00
usemtl BG_00
v 4752.805803 0.000000 -60550.016209
v -15994.844197 27763.060000 -48779.636209
v -15994.844197 0.000000 -48779.636209
v 4752.805803 27763.060000 -60550.016209
vn 0.493437 -0.000000 0.869782
vn 0.493437 -0.000000 0.869782
vn 0.493437 -0.000000 0.869782
vn 0.493437 -0.000000 0.869782
vt 8.000000 -2.000000
vt 7.000000 -1.000000
vt 7.000000 -2.000000
vt 8.000000 -1.000000
f 13/13/13 14/14/14 15/15/15
f 14/14/14 13/13/13 16/16/16

g Big-SKP--BG_01
usemtl BG_01
v 28605.975803 27763.060000 -60369.626209
v 4752.805803 0.000000 -60550.016209
v 28605.975803 0.000000 -60369.626209
v 4752.805803 27763.060000 -60550.016209
vn -0.007562 -0.000000 0.999971
vn -0.007562 -0.000000 0.999971
vn -0.007562 -0.000000 0.999971
vn -0.007562 -0.000000 0.999971
vt -75.999982 47.999989
vt -76.999997 46.999998
vt -75.999982 46.999989
vt -76.999997 47.999998
f 17/17/17 18/18/18 19/19/19
f 18/18/18 17/17/17 20/20/20

g Big-SKP--BG_02
usemtl BG_02
v 49173.235803 27763.060000 -48286.836209
v 28605.975803 0.000000 -60369.626209
v 49173.235803 0.000000 -48286.836209
v 28605.975803 27763.060000 -60369.626209
vn -0.506534 -0.000000 0.862220
vn -0.506534 -0.000000 0.862220
vn -0.506534 -0.000000 0.862220
vn -0.506534 -0.000000 0.862220
vt -50.000000 26.000000
vt -51.000000 25.000000
vt -50.000000 25.000000
vt -51.000000 26.000000
f 21/21/21 22/22/22 23/23/23
f 22/22/22 21/21/21 24/24/24

g Big-SKP--BG_03
usemtl BG_03
v 49173.235803 27763.060000 -48286.836209
v 60943.605803 0.000000 -27539.186209
v 60943.605803 27763.060000 -27539.186209
v 49173.235803 0.000000 -48286.836209
vn -0.869782 -0.000000 0.493437
vn -0.869782 -0.000000 0.493437
vn -0.869782 -0.000000 0.493437
vn -0.869782 -0.000000 0.493437
vt -30.000000 12.000000
vt -29.000000 11.000000
vt -29.000000 12.000000
vt -30.000000 11.000000
f 25/25/25 26/26/26 27/27/27
f 26/26/26 25/25/25 28/28/28

g Big-SKP--BG_04
usemtl BG_04
v 60943.605803 27763.060000 -27539.186209
v 60763.225803 0.000000 -3686.006209
v 60763.225803 27763.060000 -3686.006209
v 60943.605803 0.000000 -27539.186209
vn -0.999971 0.000000 -0.007562
vn -0.999971 0.000000 -0.007562
vn -0.999971 0.000000 -0.007562
vn -0.999971 0.000000 -0.007562
vt -16.000000 -17.000000
vt -15.000000 -18.000000
vt -15.000000 -17.000000
vt -16.000000 -18.000000
f 29/29/29 30/30/30 31/31/31
f 30/30/30 29/29/29 32/32/32

g Big-SKP--BG_05
usemtl BG_05
v 60763.225803 27763.060000 -3686.006209
v 48680.425803 -0.000000 16881.253791
v 48680.425803 27763.060000 16881.253791
v 60763.225803 0.000000 -3686.006209
vn -0.862220 0.000000 -0.506535
vn -0.862220 0.000000 -0.506535
vn -0.862220 0.000000 -0.506535
vn -0.862220 0.000000 -0.506535
vt -2.000000 -33.000000
vt -1.000000 -34.000000
vt -1.000000 -33.000000
vt -2.000000 -34.000000
f 33/33/33 34/34/34 35/35/35
f 34/34/34 33/33/33 36/36/36

g Big-SKP--BG_06
usemtl BG_06
v 27932.775803 27763.060000 28651.633791
v 48680.425803 -0.000000 16881.253791
v 27932.775803 -0.000000 28651.633791
v 48680.425803 27763.060000 16881.253791
vn -0.493437 0.000000 -0.869782
vn -0.493437 0.000000 -0.869782
vn -0.493437 0.000000 -0.869782
vn -0.493437 0.000000 -0.869782
vt 6.000000 -24.000000
vt 5.000000 -25.000000
vt 6.000000 -25.000000
vt 5.000000 -24.000000
f 37/37/37 38/38/38 39/39/39
f 38/38/38 37/37/37 40/40/40

g Big-SKP--BG_07
usemtl BG_07
v 4079.605803 27763.060000 28471.233791
v 27932.775803 -0.000000 28651.633791
v 4079.605803 -0.000000 28471.233791
v 27932.775803 27763.060000 28651.633791
vn 0.007563 0.000000 -0.999971
vn 0.007563 0.000000 -0.999971
vn 0.007563 0.000000 -0.999971
vn 0.007563 0.000000 -0.999971
vt 88.000000 73.000000
vt 87.000000 72.000000
vt 88.000000 72.000000
vt 87.000000 73.000000
f 41/41/41 42/42/42 43/43/43
f 42/42/42 41/41/41 44/44/44

g Big-SKP--BG_08
usemtl BG_08
v -16487.664197 -0.000000 16388.443791
v 4079.605803 27763.060000 28471.233791
v 4079.605803 -0.000000 28471.233791
v -16487.664197 27763.060000 16388.443791
vn 0.506534 0.000000 -0.862220
vn 0.506534 0.000000 -0.862220
vn 0.506534 0.000000 -0.862220
vn 0.506534 0.000000 -0.862220
vt 59.000000 49.000000
vt 58.000000 50.000000
vt 58.000000 49.000000
vt 59.000000 50.000000
f 45/45/45 46/46/46 47/47/47
f 46/46/46 45/45/45 48/48/48

g Big-SKP--BG_09
usemtl BG_09
v -16487.664197 -0.000000 16388.443791
v -28258.034197 27763.060000 -4359.206209
v -16487.664197 27763.060000 16388.443791
v -28258.034197 -0.000000 -4359.206209
vn 0.869782 0.000000 -0.493437
vn 0.869782 0.000000 -0.493437
vn 0.869782 0.000000 -0.493437
vn 0.869782 0.000000 -0.493437
vt 3.000000 34.000000
vt 4.000000 35.000000
vt 3.000000 35.000000
vt 4.000000 34.000000
f 49/49/49 50/50/50 51/51/51
f 50/50/50 49/49/49 52/52/52

g Big-SKP--BG_10
usemtl BG_10
v -28258.034197 -0.000000 -4359.206209
v -28077.654197 27763.060000 -28212.376209
v -28258.034197 27763.060000 -4359.206209
v -28077.654197 0.000000 -28212.376209
vn 0.999971 -0.000000 0.007562
vn 0.999971 -0.000000 0.007562
vn 0.999971 -0.000000 0.007562
vn 0.999971 -0.000000 0.007562
vt 2.000000 3.000000
vt 3.000000 4.000000
vt 2.000000 4.000000
vt 3.000000 3.000000
f 53/53/53 54/54/54 55/55/55
f 54/54/54 53/53/53 56/56/56

g Big-SKP--BG_11
usemtl BG_11
v -15994.844197 0.000000 -48779.636209
v -28077.654197 27763.060000 -28212.376209
v -28077.654197 0.000000 -28212.376209
v -15994.844197 27763.060000 -48779.636209
vn 0.862219 -0.000000 0.506535
vn 0.862219 -0.000000 0.506535
vn 0.862219 -0.000000 0.506535
vn 0.862219 -0.000000 0.506535
vt 1.000000 7.000000
vt 0.000000 8.000000
vt 0.000000 7.000000
vt 1.000000 8.000000
f 57/57/57 58/58/58 59/59/59
f 58/58/58 57/57/57 60/60/60

g Big-SKP--Floor
usemtl Floor
v -16487.664197 -0.000000 16388.443791
v -28077.654197 0.000000 -28212.376209
v -28258.034197 -0.000000 -4359.206209
v -15994.844197 0.000000 -48779.636209
v 4079.605803 -0.000000 28471.233791
v 4752.805803 0.000000 -60550.016209
v 27932.775803 -0.000000 28651.633791
v 28605.975803 0.000000 -60369.626209
v 48680.425803 -0.000000 16881.253791
v 49173.235803 0.000000 -48286.836209
v 60763.225803 0.000000 -3686.006209
v 60943.605803 0.000000 -27539.186209
vn -0.000000 1.000000 0.000000
vn -0.000000 1.000000 0.000000
vn -0.000000 1.000000 0.000000
vn -0.000000 1.000000 0.000000
vn -0.000000 1.000000 0.000000
vn -0.000000 1.000000 0.000000
vn -0.000000 1.000000 0.000000
vn -0.000000 1.000000 0.000000
vn -0.000000 1.000000 0.000000
vn -0.000000 1.000000 0.000000
vn -0.000000 1.000000 0.000000
vn -0.000000 1.000000 0.000000
vt -15.052296 9.635393
vt -14.566421 8.028912
vt -14.558859 8.888081
vt -15.072956 7.288098
vt -15.914516 10.070604
vt -15.942738 6.864140
vt -16.914487 10.077102
vt -16.942709 6.870637
vt -17.784269 9.653143
vt -17.804928 7.305848
vt -18.290803 8.912329
vt -18.298365 8.053160
f 61/61/61 62/62/62 63/63/63
f 62/62/62 61/61/61 64/64/64
f 64/64/64 61/61/61 65/65/65
f 64/64/64 65/65/65 66/66/66
f 66/66/66 65/65/65 67/67/67
f 66/66/66 67/67/67 68/68/68
f 68/68/68 67/67/67 69/69/69
f 68/68/68 69/69/69 70/70/70
f 70/70/70 69/69/69 71/71/71
f 70/70/70 71/71/71 72/72/72

