# 3ds Max Wavefront OBJ Exporter v0.97b - (c)2007 guruware
# File Created: 04.10.2018 03:32:37

mtllib Mesh_0003.mtl

#
# object Mesh_0003
#

v  716800.000000 0.000000 -409600.000000
v  614400.000000 0.000000 -614400.000000
v  716800.000000 51200.000000 -409600.000000
v  614400.000000 51200.000000 -614400.000000
v  614400.000000 0.000000 -1080800.000000
v  614400.000000 51200.000000 -1080800.000000
v  921600.000000 0.000000 -614400.000000
v  819200.000000 0.000000 -409600.000000
v  921600.000000 51200.000000 -614400.000000
v  819200.000000 51200.000000 -409600.000000
v  921600.000000 0.000000 -1080800.000000
v  921600.000000 51200.000000 -1080800.000000
v  615200.000000 0.000000 -986400.000000
v  615200.000000 0.000000 -1012000.000000
v  615200.000000 25600.000000 -986400.000000
v  615200.000000 25600.000000 -1012000.000000
v  615200.000000 0.000000 -951200.000000
v  615200.000000 0.000000 -976800.000000
v  615200.000000 25600.000000 -951200.000000
v  615200.000000 25600.000000 -976800.000000
v  615200.000000 0.000000 -916000.000000
v  615200.000000 0.000000 -941600.000000
v  615200.000000 25600.000000 -916000.000000
v  615200.000000 25600.000000 -941600.000000
v  615200.000000 0.000000 -880800.000000
v  615200.000000 0.000000 -906400.000000
v  615200.000000 25600.000000 -880800.000000
v  615200.000000 25600.000000 -906400.000000
v  738300.000000 0.000000 -1080100.000000
v  763900.000000 0.000000 -1080100.000000
v  738300.000000 25600.000000 -1080100.000000
v  763900.000000 25600.000000 -1080100.000000
v  773500.000000 0.000000 -1080100.000000
v  799100.000000 0.000000 -1080100.000000
v  773500.000000 25600.000000 -1080100.000000
v  799100.000000 25600.000000 -1080100.000000
v  808700.000000 0.000000 -1080100.000000
v  834300.000000 0.000000 -1080100.000000
v  808700.000000 25600.000000 -1080100.000000
v  834300.000000 25600.000000 -1080100.000000
v  703100.000000 0.000000 -1080100.000000
v  728700.000000 0.000000 -1080100.000000
v  703100.000000 25600.000000 -1080100.000000
v  728700.000000 25600.000000 -1080100.000000
v  843900.000000 0.000000 -1080100.000000
v  869500.000000 0.000000 -1080100.000000
v  843900.000000 25600.000000 -1080100.000000
v  869500.000000 25600.000000 -1080100.000000
v  667900.000000 0.000000 -1080100.000000
v  693500.000000 0.000000 -1080100.000000
v  667900.000000 25600.000000 -1080100.000000
v  693500.000000 25600.000000 -1080100.000000
v  632700.000000 0.000000 -1080100.000000
v  658300.000000 0.000000 -1080100.000000
v  632700.000000 25600.000000 -1080100.000000
v  658300.000000 25600.000000 -1080100.000000
v  615200.000000 0.000000 -1021600.000000
v  615200.000000 0.000000 -1047200.000000
v  615200.000000 25600.000000 -1021600.000000
v  615200.000000 25600.000000 -1047200.000000
v  920800.000000 0.000000 -1046400.000000
v  920800.000000 0.000000 -1020800.000000
v  920800.000000 25600.000000 -1046400.000000
v  920800.000000 25600.000000 -1020800.000000
v  920800.000000 0.000000 -1012000.000000
v  920800.000000 0.000000 -986400.000000
v  920800.000000 25600.000000 -1012000.000000
v  920800.000000 25600.000000 -986400.000000
v  920800.000000 0.000000 -976800.000000
v  920800.000000 0.000000 -951200.000000
v  920800.000000 25600.000000 -976800.000000
v  920800.000000 25600.000000 -951200.000000
v  920800.000000 0.000000 -942400.000000
v  920800.000000 0.000000 -916800.000000
v  920800.000000 25600.000000 -942400.000000
v  920800.000000 25600.000000 -916800.000000
v  920800.000000 0.000000 -907200.000000
v  920800.000000 0.000000 -881600.000000
v  920800.000000 25600.000000 -907200.000000
v  920800.000000 25600.000000 -881600.000000
v  716800.000000 100.000000 -856000.000000
v  819200.000000 100.000000 -856000.000000
v  716800.000000 51200.000000 -856000.000000
v  819200.000000 51200.000000 -856000.000000
v  716800.000000 100.000000 -859200.000000
v  819200.000000 100.000000 -859200.000000
v  716800.000000 51200.000000 -859200.000000
v  819200.000000 51200.000000 -859200.000000
v  879100.000000 0.000000 -1080100.000000
v  904700.000000 0.000000 -1080100.000000
v  879100.000000 25600.000000 -1080100.000000
v  904700.000000 25600.000000 -1080100.000000
# 92 vertices

vn 0.894427 0.000000 -0.447214
vn 1.000000 0.000000 -0.000000
vn -0.894427 0.000000 -0.447214
vn -1.000000 0.000000 -0.000000
vn 0.000000 0.000000 1.000000
vn 0.000000 0.000000 -1.000000
# 6 vertex normals

o Mesh_0003
g Mesh_0003
usemtl setka_png
f -92//-6 -91//-6 -90//-6 
f -90//-6 -91//-6 -89//-6 
f -91//-5 -88//-5 -89//-5 
f -89//-5 -88//-5 -87//-5 
f -86//-4 -85//-4 -84//-4 
f -84//-4 -85//-4 -83//-4 
f -82//-3 -86//-3 -81//-3 
f -81//-3 -86//-3 -84//-3 
f -88//-2 -82//-2 -87//-2 
f -87//-2 -82//-2 -81//-2 
f -85//-1 -92//-1 -83//-1 
f -83//-1 -92//-1 -90//-1 
f -80//-5 -79//-5 -78//-5 
f -78//-5 -79//-5 -77//-5 
f -76//-5 -75//-5 -74//-5 
f -74//-5 -75//-5 -73//-5 
f -72//-5 -71//-5 -70//-5 
f -70//-5 -71//-5 -69//-5 
f -68//-5 -67//-5 -66//-5 
f -66//-5 -67//-5 -65//-5 
f -64//-2 -63//-2 -62//-2 
f -62//-2 -63//-2 -61//-2 
f -60//-2 -59//-2 -58//-2 
f -58//-2 -59//-2 -57//-2 
f -56//-2 -55//-2 -54//-2 
f -54//-2 -55//-2 -53//-2 
f -52//-2 -51//-2 -50//-2 
f -50//-2 -51//-2 -49//-2 
f -48//-2 -47//-2 -46//-2 
f -46//-2 -47//-2 -45//-2 
f -44//-2 -43//-2 -42//-2 
f -42//-2 -43//-2 -41//-2 
f -40//-2 -39//-2 -38//-2 
f -38//-2 -39//-2 -37//-2 
f -36//-5 -35//-5 -34//-5 
f -34//-5 -35//-5 -33//-5 
f -32//-3 -31//-3 -30//-3 
f -30//-3 -31//-3 -29//-3 
f -28//-3 -27//-3 -26//-3 
f -26//-3 -27//-3 -25//-3 
f -24//-3 -23//-3 -22//-3 
f -22//-3 -23//-3 -21//-3 
f -20//-3 -19//-3 -18//-3 
f -18//-3 -19//-3 -17//-3 
f -16//-3 -15//-3 -14//-3 
f -14//-3 -15//-3 -13//-3 
f -12//-2 -11//-2 -10//-2 
f -10//-2 -11//-2 -9//-2 
f -8//-2 -7//-2 -6//-2 
f -6//-2 -7//-2 -5//-2 
f -12//-5 -8//-5 -10//-5 
f -10//-5 -8//-5 -6//-5 
f -7//-3 -11//-3 -5//-3 
f -5//-3 -11//-3 -9//-3 
f -4//-2 -3//-2 -2//-2 
f -2//-2 -3//-2 -1//-2 
# 0 polygons - 56 triangles

