# Alias Wavefront OBJ File Exported from SketchUp
# with OBJexporter (c) 2010-2011 TIG
# Units = meters

mtllib itemBoxNise.mtl

g itemBoxNise-SKP--ef_hatenas
usemtl ef_hatenas
v 68.397369 68.620000 -2.362656
v -68.842134 -68.620000 -2.362656
v 68.397369 -68.620000 -2.362656
v -68.842134 68.620000 -2.362656
vn 0.000000 0.000000 1.000000
vn 0.000000 0.000000 1.000000
vn 0.000000 0.000000 1.000000
vn 0.000000 0.000000 1.000000
vt -1.001748 0.000000
vt 0.000000 1.001752
vt -1.001748 1.001752
vt 0.000000 0.000000
f 1/1/1 2/2/2 3/3/3
f 2/2/2 1/1/1 4/4/4

g itemBoxNise-SKP--ef_rainbows
usemtl ef_rainbows
v -111.029187 0.000000 36.075008
v -80.341165 -61.375930 58.371053
v -68.619752 0.000000 94.446903
v -111.029187 0.000000 -36.075008
v -104.417695 -52.209142 -0.000000
v -111.029187 0.000000 36.075008
v -0.000000 0.000000 116.742826
v 30.688050 -61.376100 94.446303
v 68.619752 0.000000 94.446903
v 32.265967 52.209142 99.306114
v -0.000000 0.000000 116.742826
v 68.619752 0.000000 94.446903
v -30.688050 61.376100 94.446303
v -0.000000 0.000000 116.742826
v 32.265967 52.209142 99.306114
v 80.341165 61.375930 58.371053
v 32.265967 52.209142 99.306114
v 68.619752 0.000000 94.446903
v 68.619752 0.000000 94.446903
v 30.688050 -61.376100 94.446303
v 84.475102 -52.209142 61.374040
v -18.965521 -99.307794 58.370858
v -32.265967 -52.209142 99.306114
v -80.341165 -61.375930 58.371053
v -0.000000 0.000000 116.742826
v -32.265967 -52.209142 99.306114
v 30.688050 -61.376100 94.446303
v -0.000000 -116.742826 -0.000000
v -18.965521 -99.307794 58.370858
v -61.375185 -99.307474 -0.000000
v 49.653372 -99.307774 36.074863
v -0.000000 -116.742826 -0.000000
v 49.653372 -99.307774 -36.074863
v 99.307034 -61.375895 -0.000000
v 111.029187 0.000000 36.075008
v 84.475102 -52.209142 61.374040
v 99.307034 -61.375895 -0.000000
v 49.653372 -99.307774 36.074863
v 49.653372 -99.307774 -36.074863
v 84.475102 -52.209142 -61.374040
v 99.307034 -61.375895 -0.000000
v 49.653372 -99.307774 -36.074863
v 84.475102 -52.209142 -61.374040
v 111.029187 0.000000 -36.075008
v 99.307034 -61.375895 -0.000000
v 84.475102 -52.209142 -61.374040
v 49.653372 -99.307774 -36.074863
v 30.688050 -61.376100 -94.446303
v 49.653372 -99.307774 -36.074863
v -0.000000 -116.742826 -0.000000
v -18.965521 -99.307794 -58.370858
v -18.965521 -99.307794 58.370858
v -80.341165 -61.375930 58.371053
v -61.375185 -99.307474 -0.000000
v -68.619752 0.000000 94.446903
v -80.341165 -61.375930 58.371053
v -32.265967 -52.209142 99.306114
v -61.375185 -99.307474 -0.000000
v -80.341165 -61.375930 58.371053
v -104.417695 -52.209142 -0.000000
v -80.341165 -61.375930 -58.371053
v -61.375185 -99.307474 -0.000000
v -104.417695 -52.209142 -0.000000
v -104.417695 -52.209142 -0.000000
v -80.341165 -61.375930 58.371053
v -111.029187 0.000000 36.075008
v -0.000000 -116.742826 -0.000000
v -61.375185 -99.307474 -0.000000
v -18.965521 -99.307794 -58.370858
v -18.965521 -99.307794 -58.370858
v -61.375185 -99.307474 -0.000000
v -80.341165 -61.375930 -58.371053
v -80.341165 -61.375930 -58.371053
v -104.417695 -52.209142 -0.000000
v -111.029187 0.000000 -36.075008
v -18.965521 -99.307794 -58.370858
v -80.341165 -61.375930 -58.371053
v -32.265967 -52.209142 -99.306114
v -32.265967 -52.209142 -99.306114
v 30.688050 -61.376100 -94.446303
v -18.965521 -99.307794 -58.370858
v -68.619752 0.000000 -94.446903
v -32.265967 -52.209142 -99.306114
v -80.341165 -61.375930 -58.371053
v 49.653372 -99.307774 -36.074863
v -18.965521 -99.307794 -58.370858
v 30.688050 -61.376100 -94.446303
v -0.000000 0.000000 -116.742826
v 30.688050 -61.376100 -94.446303
v -32.265967 -52.209142 -99.306114
v 68.619752 0.000000 -94.446903
v 84.475102 -52.209142 -61.374040
v 30.688050 -61.376100 -94.446303
v -68.619752 0.000000 -94.446903
v -80.341165 -61.375930 -58.371053
v -111.029187 0.000000 -36.075008
v -68.619752 0.000000 -94.446903
v -111.029187 0.000000 -36.075008
v -84.475102 52.209142 -61.374040
v -30.688050 61.376100 -94.446303
v -68.619752 0.000000 -94.446903
v -84.475102 52.209142 -61.374040
v -84.475102 52.209142 -61.374040
v -111.029187 0.000000 -36.075008
v -99.307034 61.375895 -0.000000
v 68.619752 0.000000 -94.446903
v 30.688050 -61.376100 -94.446303
v -0.000000 0.000000 -116.742826
v 32.265967 52.209142 -99.306114
v 68.619752 0.000000 -94.446903
v -0.000000 0.000000 -116.742826
v 80.341165 61.375930 -58.371053
v 68.619752 0.000000 -94.446903
v 32.265967 52.209142 -99.306114
v -30.688050 61.376100 -94.446303
v 32.265967 52.209142 -99.306114
v -0.000000 0.000000 -116.742826
v 111.029187 0.000000 36.075008
v 80.341165 61.375930 58.371053
v 68.619752 0.000000 94.446903
v 61.375185 99.307474 -0.000000
v 80.341165 61.375930 58.371053
v 104.417695 52.209142 -0.000000
v 80.341165 61.375930 58.371053
v 18.965521 99.307794 58.370858
v 32.265967 52.209142 99.306114
v -30.688050 61.376100 94.446303
v -68.619752 0.000000 94.446903
v -0.000000 0.000000 116.742826
v 18.965521 99.307794 58.370858
v -30.688050 61.376100 94.446303
v 32.265967 52.209142 99.306114
v -30.688050 61.376100 94.446303
v -49.653372 99.307774 36.074863
v -84.475102 52.209142 61.374040
v -111.029187 0.000000 -36.075008
v -111.029187 0.000000 36.075008
v -99.307034 61.375895 -0.000000
v -99.307034 61.375895 -0.000000
v -84.475102 52.209142 61.374040
v -49.653372 99.307774 36.074863
v -84.475102 52.209142 -61.374040
v -99.307034 61.375895 -0.000000
v -49.653372 99.307774 -36.074863
v -30.688050 61.376100 -94.446303
v -0.000000 0.000000 -116.742826
v -68.619752 0.000000 -94.446903
v -30.688050 61.376100 -94.446303
v -84.475102 52.209142 -61.374040
v -49.653372 99.307774 -36.074863
v 18.965521 99.307794 -58.370858
v 32.265967 52.209142 -99.306114
v -30.688050 61.376100 -94.446303
v 68.619752 0.000000 -94.446903
v 80.341165 61.375930 -58.371053
v 111.029187 0.000000 -36.075008
v 80.341165 61.375930 -58.371053
v 32.265967 52.209142 -99.306114
v 18.965521 99.307794 -58.370858
v 80.341165 61.375930 -58.371053
v 61.375185 99.307474 -0.000000
v 104.417695 52.209142 -0.000000
v 80.341165 61.375930 58.371053
v 61.375185 99.307474 -0.000000
v 18.965521 99.307794 58.370858
v 61.375185 99.307474 -0.000000
v -0.000000 116.742826 -0.000000
v 18.965521 99.307794 58.370858
v 18.965521 99.307794 58.370858
v -0.000000 116.742826 -0.000000
v -49.653372 99.307774 36.074863
v 61.375185 99.307474 -0.000000
v 18.965521 99.307794 -58.370858
v -0.000000 116.742826 -0.000000
v 18.965521 99.307794 58.370858
v -49.653372 99.307774 36.074863
v -30.688050 61.376100 94.446303
v -0.000000 116.742826 -0.000000
v -49.653372 99.307774 -36.074863
v -49.653372 99.307774 36.074863
v -49.653372 99.307774 -36.074863
v -99.307034 61.375895 -0.000000
v -49.653372 99.307774 36.074863
v 18.965521 99.307794 -58.370858
v -49.653372 99.307774 -36.074863
v -0.000000 116.742826 -0.000000
v 18.965521 99.307794 -58.370858
v -30.688050 61.376100 -94.446303
v -49.653372 99.307774 -36.074863
v 80.341165 61.375930 -58.371053
v 18.965521 99.307794 -58.370858
v 61.375185 99.307474 -0.000000
v 111.029187 0.000000 -36.075008
v 111.029187 0.000000 36.075008
v 99.307034 -61.375895 -0.000000
v 111.029187 0.000000 -36.075008
v 104.417695 52.209142 -0.000000
v 111.029187 0.000000 36.075008
v 80.341165 61.375930 -58.371053
v 104.417695 52.209142 -0.000000
v 111.029187 0.000000 -36.075008
v 104.417695 52.209142 -0.000000
v 80.341165 61.375930 58.371053
v 111.029187 0.000000 36.075008
v 68.619752 0.000000 -94.446903
v 111.029187 0.000000 -36.075008
v 84.475102 -52.209142 -61.374040
v 111.029187 0.000000 36.075008
v 68.619752 0.000000 94.446903
v 84.475102 -52.209142 61.374040
v -68.619752 0.000000 94.446903
v -32.265967 -52.209142 99.306114
v -0.000000 0.000000 116.742826
v 84.475102 -52.209142 61.374040
v 30.688050 -61.376100 94.446303
v 49.653372 -99.307774 36.074863
v 99.307034 -61.375895 -0.000000
v 84.475102 -52.209142 61.374040
v 49.653372 -99.307774 36.074863
v 49.653372 -99.307774 36.074863
v 30.688050 -61.376100 94.446303
v -18.965521 -99.307794 58.370858
v -32.265967 -52.209142 99.306114
v -18.965521 -99.307794 58.370858
v 30.688050 -61.376100 94.446303
v 49.653372 -99.307774 36.074863
v -18.965521 -99.307794 58.370858
v -0.000000 -116.742826 -0.000000
v -99.307034 61.375895 -0.000000
v -111.029187 0.000000 36.075008
v -84.475102 52.209142 61.374040
v -30.688050 61.376100 94.446303
v -84.475102 52.209142 61.374040
v -68.619752 0.000000 94.446903
v -0.000000 0.000000 -116.742826
v -32.265967 -52.209142 -99.306114
v -68.619752 0.000000 -94.446903
v -111.029187 0.000000 36.075008
v -68.619752 0.000000 94.446903
v -84.475102 52.209142 61.374040
vn -0.794656 -0.187595 0.577348
vn -0.794656 -0.187595 0.577348
vn -0.794656 -0.187595 0.577348
vn -0.992077 -0.125631 -0.000000
vn -0.992077 -0.125631 -0.000000
vn -0.992077 -0.125631 -0.000000
vn 0.303531 -0.187598 0.934171
vn 0.303531 -0.187598 0.934171
vn 0.303531 -0.187598 0.934171
vn 0.306568 0.125651 0.943519
vn 0.306568 0.125651 0.943519
vn 0.306568 0.125651 0.943519
vn -0.024726 0.330396 0.943519
vn -0.024726 0.330396 0.943519
vn -0.024726 0.330396 0.943519
vn 0.574584 0.330397 0.748793
vn 0.574584 0.330397 0.748793
vn 0.574584 0.330397 0.748793
vn 0.534590 -0.330395 0.777851
vn 0.534590 -0.330395 0.777851
vn 0.534590 -0.330395 0.777851
vn -0.408939 -0.661686 0.628443
vn -0.408939 -0.661686 0.628443
vn -0.408939 -0.661686 0.628443
vn 0.024726 -0.330396 0.943519
vn 0.024726 -0.330396 0.943519
vn 0.024726 -0.330396 0.943519
vn -0.268034 -0.943523 0.194737
vn -0.268034 -0.943523 0.194737
vn -0.268034 -0.943523 0.194737
vn 0.331305 -0.943524 -0.000000
vn 0.331305 -0.943524 -0.000000
vn 0.331305 -0.943524 -0.000000
vn 0.904981 -0.330393 0.268049
vn 0.904981 -0.330393 0.268049
vn 0.904981 -0.330393 0.268049
vn 0.607061 -0.794656 -0.000000
vn 0.607061 -0.794656 -0.000000
vn 0.607061 -0.794656 -0.000000
vn 0.700228 -0.661687 -0.268049
vn 0.700228 -0.661687 -0.268049
vn 0.700228 -0.661687 -0.268049
vn 0.904981 -0.330393 -0.268049
vn 0.904981 -0.330393 -0.268049
vn 0.904981 -0.330393 -0.268049
vn 0.471318 -0.661687 -0.583121
vn 0.471318 -0.661687 -0.583121
vn 0.471318 -0.661687 -0.583121
vn 0.102381 -0.943523 -0.315090
vn 0.102381 -0.943523 -0.315090
vn 0.102381 -0.943523 -0.315090
vn -0.491119 -0.794657 0.356821
vn -0.491119 -0.794657 0.356821
vn -0.491119 -0.794657 0.356821
vn -0.574584 -0.330397 0.748793
vn -0.574584 -0.330397 0.748793
vn -0.574584 -0.330397 0.748793
vn -0.724044 -0.661694 0.194735
vn -0.724044 -0.661694 0.194735
vn -0.724044 -0.661694 0.194735
vn -0.724044 -0.661694 -0.194735
vn -0.724044 -0.661694 -0.194735
vn -0.724044 -0.661694 -0.194735
vn -0.889698 -0.330386 0.315092
vn -0.889698 -0.330386 0.315092
vn -0.889698 -0.330386 0.315092
vn -0.268034 -0.943523 -0.194737
vn -0.268034 -0.943523 -0.194737
vn -0.268034 -0.943523 -0.194737
vn -0.491119 -0.794657 -0.356821
vn -0.491119 -0.794657 -0.356821
vn -0.491119 -0.794657 -0.356821
vn -0.889698 -0.330386 -0.315092
vn -0.889698 -0.330386 -0.315092
vn -0.889698 -0.330386 -0.315092
vn -0.408939 -0.661686 -0.628443
vn -0.408939 -0.661686 -0.628443
vn -0.408939 -0.661686 -0.628443
vn -0.038547 -0.661687 -0.748789
vn -0.038547 -0.661687 -0.748789
vn -0.038547 -0.661687 -0.748789
vn -0.574584 -0.330397 -0.748793
vn -0.574584 -0.330397 -0.748793
vn -0.574584 -0.330397 -0.748793
vn 0.187594 -0.794658 -0.577345
vn 0.187594 -0.794658 -0.577345
vn 0.187594 -0.794658 -0.577345
vn 0.024726 -0.330396 -0.943519
vn 0.024726 -0.330396 -0.943519
vn 0.024726 -0.330396 -0.943519
vn 0.534590 -0.330395 -0.777851
vn 0.534590 -0.330395 -0.777851
vn 0.534590 -0.330395 -0.777851
vn -0.794656 -0.187595 -0.577348
vn -0.794656 -0.187595 -0.577348
vn -0.794656 -0.187595 -0.577348
vn -0.802607 0.125648 -0.583125
vn -0.802607 0.125648 -0.583125
vn -0.802607 0.125648 -0.583125
vn -0.534590 0.330395 -0.777851
vn -0.534590 0.330395 -0.777851
vn -0.534590 0.330395 -0.777851
vn -0.904981 0.330393 -0.268049
vn -0.904981 0.330393 -0.268049
vn -0.904981 0.330393 -0.268049
vn 0.303531 -0.187598 -0.934171
vn 0.303531 -0.187598 -0.934171
vn 0.303531 -0.187598 -0.934171
vn 0.306568 0.125651 -0.943519
vn 0.306568 0.125651 -0.943519
vn 0.306568 0.125651 -0.943519
vn 0.574584 0.330397 -0.748793
vn 0.574584 0.330397 -0.748793
vn 0.574584 0.330397 -0.748793
vn -0.024726 0.330396 -0.943519
vn -0.024726 0.330396 -0.943519
vn -0.024726 0.330396 -0.943519
vn 0.794656 0.187595 0.577348
vn 0.794656 0.187595 0.577348
vn 0.794656 0.187595 0.577348
vn 0.724044 0.661694 0.194735
vn 0.724044 0.661694 0.194735
vn 0.724044 0.661694 0.194735
vn 0.408939 0.661686 0.628443
vn 0.408939 0.661686 0.628443
vn 0.408939 0.661686 0.628443
vn -0.303531 0.187598 0.934171
vn -0.303531 0.187598 0.934171
vn -0.303531 0.187598 0.934171
vn 0.038547 0.661687 0.748789
vn 0.038547 0.661687 0.748789
vn 0.038547 0.661687 0.748789
vn -0.471318 0.661687 0.583121
vn -0.471318 0.661687 0.583121
vn -0.471318 0.661687 0.583121
vn -0.982246 0.187599 -0.000000
vn -0.982246 0.187599 -0.000000
vn -0.982246 0.187599 -0.000000
vn -0.700228 0.661687 0.268049
vn -0.700228 0.661687 0.268049
vn -0.700228 0.661687 0.268049
vn -0.700228 0.661687 -0.268049
vn -0.700228 0.661687 -0.268049
vn -0.700228 0.661687 -0.268049
vn -0.303531 0.187598 -0.934171
vn -0.303531 0.187598 -0.934171
vn -0.303531 0.187598 -0.934171
vn -0.471318 0.661687 -0.583121
vn -0.471318 0.661687 -0.583121
vn -0.471318 0.661687 -0.583121
vn 0.038547 0.661687 -0.748789
vn 0.038547 0.661687 -0.748789
vn 0.038547 0.661687 -0.748789
vn 0.794656 0.187595 -0.577348
vn 0.794656 0.187595 -0.577348
vn 0.794656 0.187595 -0.577348
vn 0.408939 0.661686 -0.628443
vn 0.408939 0.661686 -0.628443
vn 0.408939 0.661686 -0.628443
vn 0.724044 0.661694 -0.194735
vn 0.724044 0.661694 -0.194735
vn 0.724044 0.661694 -0.194735
vn 0.491119 0.794657 0.356821
vn 0.491119 0.794657 0.356821
vn 0.491119 0.794657 0.356821
vn 0.268034 0.943523 0.194737
vn 0.268034 0.943523 0.194737
vn 0.268034 0.943523 0.194737
vn -0.102381 0.943523 0.315090
vn -0.102381 0.943523 0.315090
vn -0.102381 0.943523 0.315090
vn 0.268034 0.943523 -0.194737
vn 0.268034 0.943523 -0.194737
vn 0.268034 0.943523 -0.194737
vn -0.187594 0.794658 0.577345
vn -0.187594 0.794658 0.577345
vn -0.187594 0.794658 0.577345
vn -0.331305 0.943524 -0.000000
vn -0.331305 0.943524 -0.000000
vn -0.331305 0.943524 -0.000000
vn -0.607061 0.794656 -0.000000
vn -0.607061 0.794656 -0.000000
vn -0.607061 0.794656 -0.000000
vn -0.102381 0.943523 -0.315090
vn -0.102381 0.943523 -0.315090
vn -0.102381 0.943523 -0.315090
vn -0.187594 0.794658 -0.577345
vn -0.187594 0.794658 -0.577345
vn -0.187594 0.794658 -0.577345
vn 0.491119 0.794657 -0.356821
vn 0.491119 0.794657 -0.356821
vn 0.491119 0.794657 -0.356821
vn 0.982246 -0.187599 -0.000000
vn 0.982246 -0.187599 -0.000000
vn 0.982246 -0.187599 -0.000000
vn 0.992077 0.125631 -0.000000
vn 0.992077 0.125631 -0.000000
vn 0.992077 0.125631 -0.000000
vn 0.889698 0.330386 -0.315092
vn 0.889698 0.330386 -0.315092
vn 0.889698 0.330386 -0.315092
vn 0.889698 0.330386 0.315092
vn 0.889698 0.330386 0.315092
vn 0.889698 0.330386 0.315092
vn 0.802607 -0.125648 -0.583125
vn 0.802607 -0.125648 -0.583125
vn 0.802607 -0.125648 -0.583125
vn 0.802607 -0.125648 0.583125
vn 0.802607 -0.125648 0.583125
vn 0.802607 -0.125648 0.583125
vn -0.306568 -0.125651 0.943519
vn -0.306568 -0.125651 0.943519
vn -0.306568 -0.125651 0.943519
vn 0.471318 -0.661687 0.583121
vn 0.471318 -0.661687 0.583121
vn 0.471318 -0.661687 0.583121
vn 0.700228 -0.661687 0.268049
vn 0.700228 -0.661687 0.268049
vn 0.700228 -0.661687 0.268049
vn 0.187594 -0.794658 0.577345
vn 0.187594 -0.794658 0.577345
vn 0.187594 -0.794658 0.577345
vn -0.038547 -0.661687 0.748789
vn -0.038547 -0.661687 0.748789
vn -0.038547 -0.661687 0.748789
vn 0.102381 -0.943523 0.315090
vn 0.102381 -0.943523 0.315090
vn 0.102381 -0.943523 0.315090
vn -0.904981 0.330393 0.268049
vn -0.904981 0.330393 0.268049
vn -0.904981 0.330393 0.268049
vn -0.534590 0.330395 0.777851
vn -0.534590 0.330395 0.777851
vn -0.534590 0.330395 0.777851
vn -0.306568 -0.125651 -0.943519
vn -0.306568 -0.125651 -0.943519
vn -0.306568 -0.125651 -0.943519
vn -0.802607 0.125648 0.583125
vn -0.802607 0.125648 0.583125
vn -0.802607 0.125648 0.583125
vt -0.144303 0.083314
vt 0.000000 -0.166627
vt 0.144303 0.083314
vt -0.144300 0.055795
vt -0.000000 -0.154709
vt 0.144300 0.055795
vt -0.144302 0.083315
vt 0.000002 -0.166627
vt 0.144302 0.083315
vt -0.000002 0.154701
vt -0.144302 -0.055804
vt 0.144302 -0.055804
vt -0.112813 0.105879
vt 0.012233 -0.154232
vt 0.139426 0.067030
vt 0.112815 0.105878
vt -0.139426 0.067029
vt -0.012229 -0.154233
vt 0.012229 0.154232
vt -0.112812 -0.105879
vt 0.139426 -0.067030
vt 0.063759 -0.140967
vt 0.108473 0.110299
vt -0.142013 0.061395
vt -0.012233 0.154232
vt -0.139426 -0.067030
vt 0.112813 -0.105879
vt -0.000000 -0.154711
vt 0.144302 0.055789
vt -0.144301 0.055792
vt -0.144299 0.055792
vt 0.000000 -0.154710
vt 0.144299 0.055792
vt 0.112812 -0.105879
vt -0.012231 0.154231
vt -0.139425 -0.067031
vt 0.000000 0.166624
vt -0.144299 -0.083314
vt 0.144299 -0.083314
vt 0.108471 0.110300
vt -0.142011 0.061397
vt 0.063758 -0.140966
vt 0.139425 -0.067031
vt 0.012231 0.154231
vt -0.112812 -0.105879
vt -0.108472 0.110300
vt -0.063758 -0.140966
vt 0.142012 0.061395
vt -0.144301 0.055791
vt 0.000000 -0.154710
vt 0.144301 0.055791
vt 0.144301 -0.083314
vt -0.000002 0.166625
vt -0.144302 -0.083312
vt 0.012229 0.154233
vt -0.112815 -0.105878
vt 0.139426 -0.067029
vt -0.063763 -0.140961
vt 0.142005 0.061401
vt -0.108479 0.110306
vt -0.142005 0.061401
vt 0.063763 -0.140961
vt 0.108479 0.110306
vt -0.139435 -0.067033
vt 0.112805 -0.105882
vt -0.012242 0.154228
vt -0.000000 -0.154711
vt 0.144301 0.055792
vt -0.144302 0.055789
vt -0.144301 -0.083314
vt 0.144302 -0.083312
vt 0.000002 0.166625
vt -0.112805 -0.105882
vt 0.139435 -0.067033
vt 0.012242 0.154228
vt -0.063759 -0.140967
vt 0.142013 0.061395
vt -0.108473 0.110299
vt 0.108472 0.110300
vt -0.142012 0.061395
vt 0.063758 -0.140967
vt -0.012229 0.154233
vt -0.139426 -0.067029
vt 0.112815 -0.105878
vt -0.144301 -0.083313
vt 0.144301 -0.083313
vt -0.000000 0.166625
vt 0.012233 0.154232
vt -0.112813 -0.105879
vt 0.139426 -0.067030
vt -0.012229 0.154232
vt -0.139426 -0.067030
vt 0.112812 -0.105879
vt -0.144303 0.083314
vt -0.000000 -0.166627
vt 0.144303 0.083314
vt -0.144303 -0.055802
vt 0.144303 -0.055802
vt 0.000001 0.154702
vt -0.112812 0.105879
vt 0.012229 -0.154232
vt 0.139426 0.067030
vt -0.139425 0.067031
vt -0.012231 -0.154231
vt 0.112812 0.105879
vt -0.144302 0.083315
vt -0.000002 -0.166627
vt 0.144302 0.083315
vt 0.000002 0.154701
vt -0.144302 -0.055804
vt 0.144302 -0.055804
vt -0.112815 0.105878
vt 0.012229 -0.154233
vt 0.139426 0.067029
vt 0.112813 0.105879
vt -0.139426 0.067030
vt -0.012233 -0.154232
vt 0.144303 -0.083314
vt -0.000000 0.166627
vt -0.144303 -0.083314
vt 0.063763 0.140961
vt -0.142005 -0.061401
vt 0.108479 -0.110306
vt 0.142013 -0.061395
vt -0.063759 0.140967
vt -0.108473 -0.110299
vt -0.000002 0.166627
vt -0.144302 -0.083315
vt 0.144302 -0.083315
vt 0.063758 0.140967
vt -0.142012 -0.061395
vt 0.108472 -0.110300
vt 0.142012 -0.061395
vt -0.063758 0.140966
vt -0.108472 -0.110300
vt -0.144300 -0.083316
vt 0.144300 -0.083316
vt -0.000000 0.166625
vt -0.142011 -0.061397
vt 0.108471 -0.110300
vt 0.063758 0.140966
vt -0.108471 -0.110300
vt 0.142011 -0.061397
vt -0.063758 0.140966
vt 0.000002 0.166627
vt -0.144302 -0.083315
vt 0.144302 -0.083315
vt -0.142012 -0.061395
vt 0.108472 -0.110300
vt 0.063758 0.140966
vt -0.063758 0.140967
vt -0.108472 -0.110300
vt 0.142012 -0.061395
vt 0.144303 -0.083314
vt 0.000000 0.166627
vt -0.144303 -0.083314
vt -0.142013 -0.061395
vt 0.108473 -0.110299
vt 0.063759 0.140967
vt 0.142005 -0.061401
vt -0.063763 0.140961
vt -0.108479 -0.110306
vt 0.000002 -0.166625
vt 0.144302 0.083312
vt -0.144301 0.083314
vt 0.144301 -0.055792
vt 0.000000 0.154711
vt -0.144302 -0.055789
vt 0.144301 -0.055791
vt -0.000000 0.154710
vt -0.144301 -0.055791
vt -0.144301 -0.055792
vt 0.144302 -0.055789
vt 0.000000 0.154711
vt 0.144301 0.083313
vt -0.144301 0.083313
vt -0.000000 -0.166625
vt -0.000000 0.154710
vt -0.144299 -0.055792
vt 0.144299 -0.055792
vt -0.144299 0.083314
vt -0.000000 -0.166624
vt 0.144299 0.083314
vt -0.144301 -0.055791
vt 0.144301 -0.055791
vt 0.000000 0.154710
vt -0.144301 0.083313
vt 0.000000 -0.166625
vt 0.144301 0.083313
vt -0.000002 -0.166625
vt 0.144301 0.083314
vt -0.144302 0.083312
vt 0.144300 0.083316
vt -0.144300 0.083316
vt 0.000000 -0.166625
vt 0.144300 -0.055795
vt 0.000000 0.154709
vt -0.144300 -0.055795
vt 0.112805 0.105882
vt -0.139435 0.067033
vt -0.012242 -0.154228
vt 0.139435 0.067033
vt -0.112805 0.105882
vt 0.012242 -0.154228
vt 0.144303 0.055802
vt -0.144303 0.055802
vt -0.000001 -0.154702
vt 0.144303 0.055802
vt -0.144303 0.055802
vt 0.000001 -0.154702
vt -0.144302 0.055804
vt 0.000002 -0.154701
vt 0.144302 0.055804
vt 0.108472 0.110300
vt -0.142012 0.061395
vt 0.063758 -0.140966
vt 0.142011 0.061397
vt -0.108471 0.110300
vt -0.063758 -0.140966
vt 0.144301 -0.083313
vt 0.000000 0.166625
vt -0.144301 -0.083313
vt -0.108472 0.110300
vt -0.063758 -0.140967
vt 0.142012 0.061395
vt 0.144301 0.055791
vt -0.144301 0.055791
vt -0.000000 -0.154710
vt -0.112812 0.105879
vt 0.012231 -0.154231
vt 0.139425 0.067031
vt 0.112812 0.105879
vt -0.139426 0.067030
vt -0.012229 -0.154232
vt -0.144302 0.055804
vt -0.000002 -0.154701
vt 0.144302 0.055804
vt -0.144303 -0.055802
vt 0.144303 -0.055802
vt -0.000001 0.154702
f 5/5/5 6/6/6 7/7/7
f 8/8/8 9/9/9 10/10/10
f 11/11/11 12/12/12 13/13/13
f 14/14/14 15/15/15 16/16/16
f 17/17/17 18/18/18 19/19/19
f 20/20/20 21/21/21 22/22/22
f 23/23/23 24/24/24 25/25/25
f 26/26/26 27/27/27 28/28/28
f 29/29/29 30/30/30 31/31/31
f 32/32/32 33/33/33 34/34/34
f 35/35/35 36/36/36 37/37/37
f 38/38/38 39/39/39 40/40/40
f 41/41/41 42/42/42 43/43/43
f 44/44/44 45/45/45 46/46/46
f 47/47/47 48/48/48 49/49/49
f 50/50/50 51/51/51 52/52/52
f 53/53/53 54/54/54 55/55/55
f 56/56/56 57/57/57 58/58/58
f 59/59/59 60/60/60 61/61/61
f 62/62/62 63/63/63 64/64/64
f 65/65/65 66/66/66 67/67/67
f 68/68/68 69/69/69 70/70/70
f 71/71/71 72/72/72 73/73/73
f 74/74/74 75/75/75 76/76/76
f 77/77/77 78/78/78 79/79/79
f 80/80/80 81/81/81 82/82/82
f 83/83/83 84/84/84 85/85/85
f 86/86/86 87/87/87 88/88/88
f 89/89/89 90/90/90 91/91/91
f 92/92/92 93/93/93 94/94/94
f 95/95/95 96/96/96 97/97/97
f 98/98/98 99/99/99 100/100/100
f 101/101/101 102/102/102 103/103/103
f 104/104/104 105/105/105 106/106/106
f 107/107/107 108/108/108 109/109/109
f 110/110/110 111/111/111 112/112/112
f 113/113/113 114/114/114 115/115/115
f 116/116/116 117/117/117 118/118/118
f 119/119/119 120/120/120 121/121/121
f 122/122/122 123/123/123 124/124/124
f 125/125/125 126/126/126 127/127/127
f 128/128/128 129/129/129 130/130/130
f 131/131/131 132/132/132 133/133/133
f 134/134/134 135/135/135 136/136/136
f 137/137/137 138/138/138 139/139/139
f 140/140/140 141/141/141 142/142/142
f 143/143/143 144/144/144 145/145/145
f 146/146/146 147/147/147 148/148/148
f 149/149/149 150/150/150 151/151/151
f 152/152/152 153/153/153 154/154/154
f 155/155/155 156/156/156 157/157/157
f 158/158/158 159/159/159 160/160/160
f 161/161/161 162/162/162 163/163/163
f 164/164/164 165/165/165 166/166/166
f 167/167/167 168/168/168 169/169/169
f 170/170/170 171/171/171 172/172/172
f 173/173/173 174/174/174 175/175/175
f 176/176/176 177/177/177 178/178/178
f 179/179/179 180/180/180 181/181/181
f 182/182/182 183/183/183 184/184/184
f 185/185/185 186/186/186 187/187/187
f 188/188/188 189/189/189 190/190/190
f 191/191/191 192/192/192 193/193/193
f 194/194/194 195/195/195 196/196/196
f 197/197/197 198/198/198 199/199/199
f 200/200/200 201/201/201 202/202/202
f 203/203/203 204/204/204 205/205/205
f 206/206/206 207/207/207 208/208/208
f 209/209/209 210/210/210 211/211/211
f 212/212/212 213/213/213 214/214/214
f 215/215/215 216/216/216 217/217/217
f 218/218/218 219/219/219 220/220/220
f 221/221/221 222/222/222 223/223/223
f 224/224/224 225/225/225 226/226/226
f 227/227/227 228/228/228 229/229/229
f 230/230/230 231/231/231 232/232/232
f 233/233/233 234/234/234 235/235/235
f 236/236/236 237/237/237 238/238/238
f 239/239/239 240/240/240 241/241/241
f 242/242/242 243/243/243 244/244/244

