# Alias Wavefront OBJ File Exported from SketchUp
# with OBJexporter (c) 2010-2011 TIG
# Units = meters

mtllib Rip_0003.mtl

g Mesh_0003-SKP--Default_Material
usemtl Default_Material
v 0.000000 0.000000 -4608.000000
v 2304.000000 1152.000000 -0.000000
v 2304.000000 -0.000000 -0.000000
v 0.000000 1152.000000 -4608.000000
v 0.000000 0.000000 -15102.000000
v 0.000000 1152.000000 -4608.000000
v 0.000000 0.000000 -4608.000000
v 0.000000 1152.000000 -15102.000000
v 6912.000000 1152.000000 -4608.000000
v 4608.000000 -0.000000 -0.000000
v 4608.000000 1152.000000 -0.000000
v 6912.000000 0.000000 -4608.000000
v 6912.000000 1152.000000 -15102.000000
v 6912.000000 0.000000 -4608.000000
v 6912.000000 1152.000000 -4608.000000
v 6912.000000 0.000000 -15102.000000
v 6912.000000 1152.000000 -15102.000000
v 0.000000 0.000000 -15102.000000
v 6912.000000 0.000000 -15102.000000
v 0.000000 1152.000000 -15102.000000
v 2304.000000 1152.000000 -0.000000
v 4608.000000 -0.000000 -0.000000
v 2304.000000 -0.000000 -0.000000
v 4608.000000 1152.000000 -0.000000
v 4608.000000 -0.000000 -0.000000
v 2304.000000 0.000000 -10044.000000
v 2304.000000 -0.000000 -0.000000
v 4608.000000 0.000000 -10044.000000
v 6912.000000 0.000000 -4608.000000
v 4608.000000 0.000000 -10116.000000
v 0.000000 0.000000 -15102.000000
v 0.000000 0.000000 -4608.000000
v 2304.000000 0.000000 -10116.000000
v 6912.000000 0.000000 -15102.000000
vn 0.894427 -0.000000 -0.447214
vn 0.894427 -0.000000 -0.447214
vn 0.894427 -0.000000 -0.447214
vn 0.894427 -0.000000 -0.447214
vn 1.000000 -0.000000 0.000000
vn 1.000000 -0.000000 0.000000
vn 1.000000 -0.000000 0.000000
vn 1.000000 -0.000000 0.000000
vn -0.894427 -0.000000 -0.447214
vn -0.894427 -0.000000 -0.447214
vn -0.894427 -0.000000 -0.447214
vn -0.894427 -0.000000 -0.447214
vn -1.000000 0.000000 -0.000000
vn -1.000000 0.000000 -0.000000
vn -1.000000 0.000000 -0.000000
vn -1.000000 0.000000 -0.000000
vn 0.000000 0.000000 1.000000
vn 0.000000 0.000000 1.000000
vn 0.000000 0.000000 1.000000
vn 0.000000 0.000000 1.000000
vn -0.000000 -0.000000 -1.000000
vn -0.000000 -0.000000 -1.000000
vn -0.000000 -0.000000 -1.000000
vn -0.000000 -0.000000 -1.000000
vn 0.000000 1.000000 0.000000
vn 0.000000 1.000000 0.000000
vn 0.000000 1.000000 0.000000
vn 0.000000 1.000000 0.000000
vn 0.000000 1.000000 0.000000
vn 0.000000 1.000000 0.000000
vn 0.000000 1.000000 0.000000
vn 0.000000 1.000000 0.000000
vn 0.000000 1.000000 0.000000
vn 0.000000 1.000000 0.000000
vt 162264.586462 0.000000
vt -40566.146615 45354.330709
vt -40566.146615 -0.000000
vt 162264.586462 45354.330709
vt 594566.929134 0.000000
vt 181417.322835 45354.330709
vt 181417.322835 0.000000
vt 594566.929134 45354.330709
vt -283963.026308 45354.330709
vt -81132.293231 -0.000000
vt -81132.293231 45354.330709
vt -283963.026308 -0.000000
vt -594566.929134 45354.330709
vt -181417.322835 0.000000
vt -181417.322835 45354.330709
vt -594566.929134 0.000000
vt 272125.984252 45354.330709
vt 0.000000 0.000000
vt 272125.984252 0.000000
vt 0.000000 45354.330709
vt -90708.661417 45354.330709
vt -181417.322835 -0.000000
vt -90708.661417 -0.000000
vt -181417.322835 45354.330709
vt 181417.322835 -0.000000
vt 90708.661417 395433.070866
vt 90708.661417 -0.000000
vt 181417.322835 395433.070866
vt 272125.984252 181417.322835
vt 181417.322835 398267.716535
vt -0.000000 594566.929134
vt 0.000000 181417.322835
vt 90708.661417 398267.716535
vt 272125.984252 594566.929134
f 1/1/1 2/2/2 3/3/3
f 2/2/2 1/1/1 4/4/4
f 5/5/5 6/6/6 7/7/7
f 6/6/6 5/5/5 8/8/8
f 9/9/9 10/10/10 11/11/11
f 10/10/10 9/9/9 12/12/12
f 13/13/13 14/14/14 15/15/15
f 14/14/14 13/13/13 16/16/16
f 17/17/17 18/18/18 19/19/19
f 18/18/18 17/17/17 20/20/20
f 21/21/21 22/22/22 23/23/23
f 22/22/22 21/21/21 24/24/24
f 25/25/25 26/26/26 27/27/27
f 26/26/26 25/25/25 28/28/28
f 28/28/28 25/25/25 29/29/29
f 28/28/28 29/29/29 30/30/30
f 27/27/27 31/31/31 32/32/32
f 31/31/31 27/27/27 33/33/33
f 31/31/31 33/33/33 34/34/34
f 33/33/33 27/27/27 26/26/26
f 34/34/34 33/33/33 30/30/30
f 34/34/34 30/30/30 29/29/29

